<?xml version="1.0" encoding="UTF-8"?>
<svg xmlns="http://www.w3.org/2000/svg" xmlns:xlink="http://www.w3.org/1999/xlink" width="200px" height="43px" viewBox="0 0 199 43" version="1.1">
<g id="surface1">
<path style=" stroke:none;fill-rule:nonzero;fill:rgb(84.313725%,84.313725%,84.313725%);fill-opacity:1;" d="M 34.429688 0.0117188 C 34.644531 0.101562 34.785156 0.273438 34.941406 0.441406 C 35.011719 0.511719 35.085938 0.585938 35.15625 0.660156 C 35.207031 0.714844 35.207031 0.714844 35.261719 0.765625 C 35.375 0.882812 35.496094 0.988281 35.621094 1.09375 C 36.121094 1.523438 36.59375 2 37.019531 2.503906 C 37.121094 2.625 37.226562 2.742188 37.332031 2.863281 C 38.578125 4.265625 39.59375 5.808594 40.53125 7.433594 C 40.554688 7.476562 40.578125 7.519531 40.605469 7.5625 C 42.140625 10.207031 42.949219 13.269531 43.449219 16.257812 C 43.507812 16.214844 43.570312 16.175781 43.632812 16.132812 C 44.222656 15.734375 44.820312 15.355469 45.4375 14.996094 C 45.484375 14.96875 45.53125 14.945312 45.578125 14.917969 C 49.523438 12.644531 53.949219 11.574219 58.484375 11.597656 C 58.738281 11.601562 58.992188 11.601562 59.246094 11.601562 C 59.40625 11.601562 59.566406 11.601562 59.730469 11.601562 C 59.804688 11.601562 59.878906 11.601562 59.957031 11.601562 C 60.027344 11.601562 60.09375 11.601562 60.167969 11.601562 C 60.226562 11.601562 60.289062 11.605469 60.351562 11.605469 C 60.496094 11.613281 60.496094 11.613281 60.628906 11.679688 C 60.824219 14.957031 60.878906 19.144531 59.367188 22.164062 C 59.425781 22.164062 59.484375 22.167969 59.542969 22.167969 C 62.363281 22.292969 65.117188 23.214844 67.6875 24.324219 C 67.742188 24.347656 67.796875 24.371094 67.855469 24.394531 C 68.011719 24.460938 68.164062 24.53125 68.320312 24.597656 C 68.367188 24.617188 68.414062 24.640625 68.460938 24.660156 C 68.78125 24.800781 68.78125 24.800781 68.855469 24.949219 C 68.808594 25.101562 68.808594 25.101562 68.738281 25.292969 C 68.710938 25.363281 68.683594 25.433594 68.65625 25.503906 C 68.609375 25.617188 68.609375 25.617188 68.5625 25.734375 C 68.535156 25.8125 68.503906 25.890625 68.472656 25.96875 C 68.195312 26.675781 67.902344 27.375 67.59375 28.070312 C 67.574219 28.117188 67.550781 28.164062 67.53125 28.214844 C 66.519531 30.5 65.0625 32.632812 63.371094 34.46875 C 63.246094 34.609375 63.125 34.746094 63.003906 34.886719 C 62.460938 35.511719 61.859375 36.101562 61.226562 36.628906 C 61.136719 36.707031 61.136719 36.707031 61.050781 36.785156 C 59.675781 37.976562 58.171875 39 56.582031 39.882812 C 56.527344 39.910156 56.476562 39.941406 56.421875 39.972656 C 52.777344 41.988281 48.660156 43.042969 44.503906 43.03125 C 44.320312 43.027344 44.136719 43.03125 43.953125 43.03125 C 40.882812 43.054688 37.578125 42.550781 34.785156 41.234375 C 34.5625 41.144531 34.441406 41.136719 34.214844 41.210938 C 34.128906 41.242188 34.128906 41.242188 34.039062 41.269531 C 33.96875 41.292969 33.902344 41.316406 33.828125 41.339844 C 33.746094 41.371094 33.664062 41.398438 33.578125 41.425781 C 33.386719 41.492188 33.195312 41.554688 33.003906 41.621094 C 31.308594 42.199219 29.632812 42.609375 27.859375 42.867188 C 27.742188 42.886719 27.742188 42.886719 27.621094 42.90625 C 26.726562 43.03125 25.824219 43.023438 24.921875 43.023438 C 24.734375 43.023438 24.546875 43.027344 24.359375 43.027344 C 18.898438 43.078125 13.304688 41.203125 9.015625 37.792969 C 8.894531 37.695312 8.769531 37.597656 8.644531 37.503906 C 8.132812 37.113281 7.660156 36.695312 7.195312 36.257812 C 7.050781 36.121094 6.902344 35.988281 6.753906 35.859375 C 6.238281 35.394531 5.757812 34.902344 5.308594 34.375 C 5.246094 34.304688 5.1875 34.238281 5.128906 34.171875 C 3.070312 31.820312 1.542969 29.085938 0.410156 26.183594 C 0.390625 26.128906 0.367188 26.078125 0.347656 26.023438 C 0.289062 25.871094 0.230469 25.71875 0.171875 25.570312 C 0.144531 25.5 0.144531 25.5 0.121094 25.433594 C 0.0351562 25.210938 0 25.058594 0 24.816406 C 2.917969 23.535156 6.171875 22.117188 9.417969 22.164062 C 9.40625 22.125 9.394531 22.089844 9.382812 22.050781 C 8.964844 20.742188 8.628906 19.421875 8.40625 18.066406 C 8.398438 18.003906 8.386719 17.945312 8.378906 17.882812 C 8.34375 17.671875 8.316406 17.464844 8.292969 17.253906 C 8.285156 17.207031 8.28125 17.160156 8.273438 17.109375 C 8.140625 16.003906 8.144531 14.898438 8.148438 13.785156 C 8.152344 13.546875 8.152344 13.308594 8.152344 13.070312 C 8.152344 12.605469 8.15625 12.144531 8.160156 11.679688 C 8.324219 11.597656 8.433594 11.601562 8.613281 11.601562 C 8.714844 11.601562 8.714844 11.601562 8.820312 11.601562 C 8.929688 11.601562 8.929688 11.601562 9.042969 11.597656 C 9.160156 11.597656 9.160156 11.597656 9.277344 11.597656 C 9.527344 11.597656 9.777344 11.597656 10.027344 11.597656 C 10.113281 11.597656 10.199219 11.597656 10.285156 11.597656 C 11.558594 11.597656 12.804688 11.625 14.0625 11.8125 C 14.179688 11.828125 14.179688 11.828125 14.300781 11.847656 C 18.277344 12.433594 22.058594 13.925781 25.339844 16.257812 C 25.433594 15.898438 25.507812 15.535156 25.574219 15.167969 C 26.214844 11.621094 27.585938 8.207031 29.652344 5.242188 C 29.675781 5.207031 29.699219 5.171875 29.726562 5.132812 C 30.691406 3.746094 31.78125 2.488281 32.976562 1.289062 C 33.140625 1.125 33.300781 0.960938 33.464844 0.792969 C 33.566406 0.691406 33.671875 0.585938 33.777344 0.480469 C 33.847656 0.40625 33.847656 0.40625 33.921875 0.332031 C 33.96875 0.285156 34.011719 0.242188 34.058594 0.195312 C 34.097656 0.15625 34.136719 0.117188 34.175781 0.0742188 C 34.292969 0 34.292969 0 34.429688 0.0117188 Z M 34.359375 5.308594 C 31.445312 8.4375 29.601562 12.722656 29.082031 16.945312 C 29.0625 17.117188 29.039062 17.289062 29.015625 17.460938 C 28.808594 18.617188 28.808594 18.617188 29.085938 19.695312 C 29.257812 19.902344 29.457031 20.0625 29.671875 20.21875 C 29.835938 20.347656 29.957031 20.5 30.085938 20.667969 C 30.132812 20.726562 30.179688 20.785156 30.226562 20.84375 C 30.277344 20.90625 30.328125 20.96875 30.378906 21.035156 C 30.441406 21.109375 30.503906 21.1875 30.566406 21.261719 C 31.394531 22.277344 32.117188 23.347656 32.769531 24.484375 C 32.804688 24.546875 32.839844 24.609375 32.875 24.671875 C 33.4375 25.667969 33.917969 26.683594 34.359375 27.738281 C 34.53125 27.652344 34.535156 27.597656 34.605469 27.421875 C 34.625 27.371094 34.648438 27.316406 34.671875 27.261719 C 34.695312 27.203125 34.71875 27.144531 34.742188 27.082031 C 35.773438 24.609375 37.253906 22.28125 39.070312 20.304688 C 39.152344 20.210938 39.238281 20.117188 39.320312 20.023438 C 39.351562 19.984375 39.386719 19.945312 39.421875 19.90625 C 39.457031 19.863281 39.496094 19.820312 39.535156 19.773438 C 39.59375 19.71875 39.652344 19.660156 39.714844 19.605469 C 39.945312 19.324219 39.898438 19.027344 39.871094 18.679688 C 39.863281 18.574219 39.863281 18.574219 39.859375 18.46875 C 39.753906 16.976562 39.511719 15.515625 39.136719 14.066406 C 39.113281 13.980469 39.113281 13.980469 39.089844 13.886719 C 38.355469 10.964844 36.863281 8.117188 34.890625 5.839844 C 34.824219 5.757812 34.824219 5.757812 34.753906 5.679688 C 34.59375 5.488281 34.59375 5.488281 34.425781 5.308594 C 34.40625 5.308594 34.382812 5.308594 34.359375 5.308594 Z M 11.941406 15.460938 C 12.007812 17.765625 12.648438 19.9375 13.398438 22.097656 C 13.449219 22.101562 13.5 22.105469 13.550781 22.109375 C 16.625 22.339844 19.609375 23.0625 22.421875 24.351562 C 22.488281 24.382812 22.554688 24.414062 22.625 24.445312 C 24.390625 25.265625 26.066406 26.257812 27.59375 27.472656 C 27.65625 27.519531 27.71875 27.570312 27.78125 27.621094 C 28.136719 27.90625 28.480469 28.203125 28.816406 28.511719 C 28.910156 28.597656 29.003906 28.679688 29.101562 28.761719 C 29.464844 29.078125 29.8125 29.410156 30.152344 29.753906 C 30.246094 29.847656 30.34375 29.941406 30.4375 30.035156 C 30.824219 30.421875 31.179688 30.820312 31.507812 31.253906 C 31.585938 31.023438 31.5625 30.964844 31.488281 30.742188 C 31.46875 30.679688 31.445312 30.613281 31.425781 30.550781 C 31.402344 30.480469 31.378906 30.414062 31.355469 30.34375 C 31.320312 30.234375 31.320312 30.234375 31.28125 30.128906 C 31.023438 29.378906 30.714844 28.65625 30.378906 27.9375 C 30.355469 27.878906 30.328125 27.824219 30.300781 27.761719 C 29.722656 26.53125 29.011719 25.371094 28.191406 24.285156 C 28.164062 24.25 28.136719 24.210938 28.105469 24.175781 C 27.066406 22.804688 25.90625 21.492188 24.542969 20.4375 C 24.464844 20.371094 24.382812 20.304688 24.304688 20.238281 C 23.664062 19.703125 22.996094 19.226562 22.289062 18.78125 C 22.246094 18.753906 22.207031 18.726562 22.164062 18.699219 C 19.332031 16.90625 15.675781 15.414062 12.265625 15.457031 C 12.207031 15.457031 12.144531 15.457031 12.078125 15.460938 C 12.03125 15.460938 11.988281 15.460938 11.941406 15.460938 Z M 44.90625 19.90625 C 44.871094 19.9375 44.832031 19.964844 44.792969 19.996094 C 44.386719 20.316406 44 20.660156 43.617188 21.015625 C 43.476562 21.144531 43.332031 21.269531 43.1875 21.390625 C 42.628906 21.878906 42.121094 22.410156 41.660156 22.988281 C 41.539062 23.140625 41.410156 23.285156 41.277344 23.429688 C 39.613281 25.285156 38.414062 27.65625 37.578125 29.984375 C 37.550781 30.066406 37.519531 30.144531 37.492188 30.226562 C 37.371094 30.570312 37.265625 30.894531 37.214844 31.253906 C 37.496094 30.972656 37.769531 30.683594 38.042969 30.390625 C 38.667969 29.722656 39.296875 29.058594 40 28.46875 C 40.066406 28.410156 40.132812 28.351562 40.199219 28.289062 C 41.429688 27.214844 42.773438 26.316406 44.179688 25.480469 C 44.222656 25.453125 44.269531 25.425781 44.3125 25.398438 C 47.65625 23.40625 51.53125 22.386719 55.386719 22.097656 C 56.03125 20.445312 56.492188 18.777344 56.738281 17.019531 C 56.757812 16.902344 56.757812 16.902344 56.773438 16.78125 C 56.832031 16.335938 56.863281 15.90625 56.847656 15.460938 C 52.628906 15.378906 48.179688 17.359375 44.90625 19.90625 Z M 8.558594 26.011719 C 8.484375 26.023438 8.414062 26.035156 8.34375 26.046875 C 6.570312 26.316406 6.570312 26.316406 4.910156 26.941406 C 5.015625 27.3125 5.1875 27.632812 5.371094 27.964844 C 5.421875 28.054688 5.421875 28.054688 5.472656 28.144531 C 5.765625 28.667969 6.089844 29.167969 6.433594 29.660156 C 6.488281 29.738281 6.539062 29.816406 6.59375 29.890625 C 7.707031 31.5 9.066406 33.039062 10.613281 34.242188 C 10.6875 34.300781 10.757812 34.359375 10.828125 34.421875 C 11.8125 35.234375 12.890625 35.929688 14.003906 36.558594 C 14.121094 36.625 14.234375 36.691406 14.351562 36.761719 C 19.03125 39.398438 24.996094 39.996094 30.136719 38.574219 C 30.597656 38.445312 31.054688 38.308594 31.507812 38.15625 C 31.085938 36.753906 30.082031 35.445312 29.1875 34.308594 C 29.152344 34.265625 29.121094 34.222656 29.085938 34.175781 C 28.011719 32.800781 26.789062 31.53125 25.390625 30.480469 C 25.269531 30.386719 25.144531 30.292969 25.023438 30.199219 C 22.144531 27.972656 18.707031 26.589844 15.125 26.011719 C 15.058594 26 14.992188 25.992188 14.921875 25.980469 C 12.855469 25.65625 10.617188 25.671875 8.558594 26.011719 Z M 53.265625 26.078125 C 53.195312 26.089844 53.121094 26.101562 53.046875 26.117188 C 50.117188 26.625 47.152344 27.832031 44.707031 29.53125 C 44.660156 29.5625 44.609375 29.597656 44.558594 29.632812 C 43.894531 30.097656 43.257812 30.585938 42.652344 31.121094 C 42.589844 31.175781 42.527344 31.230469 42.464844 31.289062 C 42.1875 31.535156 41.917969 31.789062 41.65625 32.050781 C 41.570312 32.136719 41.484375 32.21875 41.398438 32.304688 C 40.878906 32.816406 40.378906 33.328125 39.933594 33.910156 C 39.894531 33.957031 39.851562 34.003906 39.8125 34.054688 C 39.015625 35.015625 38.347656 36.066406 37.742188 37.160156 C 37.707031 37.226562 37.707031 37.226562 37.667969 37.296875 C 37.402344 37.707031 37.402344 37.707031 37.28125 38.15625 C 38.65625 38.625 40.078125 38.972656 41.523438 39.152344 C 41.605469 39.160156 41.605469 39.160156 41.691406 39.171875 C 47.347656 39.847656 53.214844 38.167969 57.695312 34.652344 C 57.796875 34.566406 57.902344 34.480469 58.003906 34.394531 C 58.113281 34.304688 58.21875 34.214844 58.328125 34.128906 C 58.890625 33.660156 59.40625 33.152344 59.925781 32.640625 C 59.976562 32.589844 59.976562 32.589844 60.027344 32.539062 C 60.480469 32.089844 60.898438 31.625 61.292969 31.121094 C 61.328125 31.074219 61.367188 31.027344 61.40625 30.976562 C 62.90625 29.089844 62.90625 29.089844 63.945312 26.941406 C 62.398438 26.375 60.804688 26.074219 59.167969 25.878906 C 59.113281 25.871094 59.058594 25.867188 59.003906 25.859375 C 57.113281 25.652344 55.136719 25.765625 53.265625 26.078125 Z M 53.265625 26.078125 "/>
<path style=" stroke:none;fill-rule:nonzero;fill:rgb(84.313725%,84.313725%,84.313725%);fill-opacity:1;" d="M 140.398438 17.539062 C 141.117188 18.152344 142.285156 19.207031 142.363281 20.207031 C 142.371094 20.574219 142.375 20.855469 142.152344 21.167969 C 141.878906 21.429688 141.632812 21.625 141.25 21.640625 C 140.777344 21.597656 140.382812 21.535156 140.046875 21.175781 C 139.878906 20.964844 139.726562 20.746094 139.574219 20.523438 C 138.859375 19.503906 137.894531 18.824219 136.660156 18.601562 C 135.109375 18.371094 133.355469 18.480469 132.03125 19.382812 C 131.527344 19.777344 131.273438 20.238281 131.074219 20.835938 C 131.015625 21.800781 131.105469 22.585938 131.738281 23.359375 C 132.800781 24.550781 134.578125 24.695312 136.0625 24.898438 C 137.789062 25.132812 139.5 25.539062 140.824219 26.742188 C 140.878906 26.792969 140.9375 26.839844 140.992188 26.890625 C 142.035156 27.871094 142.578125 29.175781 142.636719 30.601562 C 142.675781 32.082031 142.402344 33.417969 141.421875 34.574219 C 141.375 34.636719 141.328125 34.703125 141.277344 34.765625 C 140.03125 36.226562 137.933594 36.835938 136.089844 37.003906 C 134.695312 37.09375 133.324219 36.964844 132.003906 36.496094 C 131.960938 36.480469 131.917969 36.46875 131.875 36.453125 C 130.136719 35.835938 128.589844 34.730469 127.757812 33.046875 C 127.578125 32.628906 127.476562 32.289062 127.628906 31.847656 C 127.835938 31.535156 128.078125 31.324219 128.414062 31.164062 C 128.929688 31.058594 129.363281 31.09375 129.8125 31.386719 C 130.09375 31.632812 130.285156 31.917969 130.464844 32.242188 C 131.117188 33.355469 132.308594 33.882812 133.503906 34.21875 C 135.21875 34.617188 136.980469 34.5 138.503906 33.578125 C 139.171875 33.148438 139.621094 32.5625 139.800781 31.78125 C 139.949219 30.777344 139.757812 29.890625 139.167969 29.066406 C 138.027344 27.660156 136.273438 27.453125 134.589844 27.230469 C 133.125 27.027344 131.667969 26.578125 130.476562 25.679688 C 130.421875 25.636719 130.363281 25.59375 130.304688 25.550781 C 129.183594 24.683594 128.488281 23.542969 128.269531 22.148438 C 128.117188 20.863281 128.324219 19.535156 129.132812 18.492188 C 131.761719 15.402344 137.285156 14.945312 140.398438 17.539062 Z M 140.398438 17.539062 "/>
<path style=" stroke:none;fill-rule:nonzero;fill:rgb(84.313725%,84.313725%,84.313725%);fill-opacity:1;" d="M 184.007812 23.917969 C 185.433594 25.140625 186.273438 26.875 186.464844 28.734375 C 186.496094 29.277344 186.492188 29.824219 186.492188 30.371094 C 186.492188 30.523438 186.492188 30.679688 186.492188 30.832031 C 186.492188 31.15625 186.492188 31.476562 186.492188 31.800781 C 186.492188 32.210938 186.492188 32.621094 186.496094 33.035156 C 186.496094 33.351562 186.496094 33.671875 186.496094 33.988281 C 186.496094 34.140625 186.496094 34.292969 186.496094 34.445312 C 186.5 34.65625 186.496094 34.867188 186.496094 35.078125 C 186.496094 35.171875 186.496094 35.171875 186.5 35.269531 C 186.492188 35.703125 186.40625 36.070312 186.105469 36.398438 C 185.738281 36.722656 185.398438 36.792969 184.921875 36.78125 C 184.546875 36.742188 184.269531 36.585938 184.015625 36.300781 C 183.757812 35.929688 183.71875 35.621094 183.703125 35.183594 C 183.699219 35.128906 183.695312 35.078125 183.695312 35.023438 C 183.6875 34.894531 183.683594 34.765625 183.675781 34.640625 C 183.605469 34.714844 183.605469 34.714844 183.535156 34.792969 C 183.054688 35.300781 182.558594 35.683594 181.953125 36.03125 C 181.886719 36.070312 181.820312 36.105469 181.753906 36.144531 C 180.292969 36.925781 178.441406 37.097656 176.847656 36.652344 C 175.765625 36.3125 174.878906 35.753906 174.058594 34.96875 C 174.011719 34.929688 173.96875 34.890625 173.921875 34.847656 C 172.585938 33.609375 172.003906 31.644531 171.917969 29.875 C 171.863281 28 172.386719 26.203125 173.59375 24.75 C 173.667969 24.664062 173.667969 24.664062 173.742188 24.574219 C 176.3125 21.597656 181.058594 21.46875 184.007812 23.917969 Z M 175.863281 26.035156 C 174.84375 27.261719 174.460938 28.683594 174.589844 30.257812 C 174.742188 31.503906 175.410156 32.652344 176.359375 33.457031 C 177.445312 34.296875 178.691406 34.535156 180.027344 34.375 C 181.132812 34.203125 182.160156 33.585938 182.847656 32.707031 C 182.90625 32.621094 182.960938 32.535156 183.011719 32.449219 C 183.058594 32.378906 183.058594 32.378906 183.101562 32.308594 C 183.597656 31.460938 183.847656 30.5625 183.839844 29.578125 C 183.839844 29.507812 183.835938 29.433594 183.835938 29.359375 C 183.808594 28.046875 183.339844 26.828125 182.417969 25.878906 C 181.652344 25.144531 180.625 24.683594 179.5625 24.617188 C 179.511719 24.617188 179.457031 24.613281 179.40625 24.609375 C 178.089844 24.5625 176.769531 25.082031 175.863281 26.035156 Z M 175.863281 26.035156 "/>
<path style=" stroke:none;fill-rule:nonzero;fill:rgb(84.313725%,84.313725%,84.313725%);fill-opacity:1;" d="M 94.382812 23.789062 C 95.761719 25.117188 96.292969 26.941406 96.339844 28.816406 C 96.347656 29.191406 96.347656 29.570312 96.347656 29.949219 C 96.347656 30.113281 96.347656 30.277344 96.347656 30.441406 C 96.347656 30.785156 96.351562 31.128906 96.347656 31.46875 C 96.347656 31.90625 96.351562 32.34375 96.355469 32.78125 C 96.355469 33.121094 96.355469 33.460938 96.355469 33.796875 C 96.355469 33.960938 96.355469 34.121094 96.355469 34.28125 C 96.359375 34.507812 96.359375 34.734375 96.355469 34.957031 C 96.359375 35.023438 96.359375 35.089844 96.359375 35.15625 C 96.355469 35.617188 96.246094 35.980469 95.984375 36.363281 C 95.617188 36.714844 95.265625 36.785156 94.777344 36.777344 C 94.394531 36.746094 94.15625 36.613281 93.90625 36.335938 C 93.699219 36.082031 93.578125 35.871094 93.578125 35.539062 C 93.578125 35.480469 93.578125 35.421875 93.578125 35.363281 C 93.578125 35.296875 93.578125 35.234375 93.578125 35.167969 C 93.578125 35.101562 93.578125 35.035156 93.574219 34.964844 C 93.574219 34.816406 93.574219 34.671875 93.574219 34.523438 C 93.574219 34.292969 93.570312 34.058594 93.570312 33.824219 C 93.566406 33.328125 93.566406 32.832031 93.5625 32.335938 C 93.5625 31.765625 93.558594 31.191406 93.554688 30.621094 C 93.554688 30.390625 93.550781 30.164062 93.550781 29.9375 C 93.542969 28.433594 93.519531 26.917969 92.429688 25.753906 C 91.363281 24.804688 90.113281 24.683594 88.753906 24.75 C 87.710938 24.867188 86.859375 25.394531 86.164062 26.160156 C 85.457031 27.054688 85.53125 28.242188 85.539062 29.320312 C 85.539062 29.585938 85.539062 29.847656 85.539062 30.109375 C 85.535156 30.667969 85.535156 31.226562 85.535156 31.785156 C 85.539062 32.390625 85.539062 32.996094 85.535156 33.601562 C 85.535156 33.902344 85.535156 34.207031 85.535156 34.511719 C 85.535156 34.667969 85.535156 34.828125 85.535156 34.988281 C 85.535156 35.058594 85.539062 35.128906 85.539062 35.203125 C 85.535156 35.734375 85.417969 36.078125 85.082031 36.488281 C 84.738281 36.765625 84.390625 36.792969 83.960938 36.78125 C 83.585938 36.742188 83.308594 36.582031 83.058594 36.300781 C 82.816406 35.953125 82.765625 35.675781 82.765625 35.257812 C 82.765625 35.207031 82.765625 35.15625 82.765625 35.101562 C 82.765625 34.933594 82.765625 34.761719 82.765625 34.59375 C 82.765625 34.46875 82.765625 34.347656 82.761719 34.226562 C 82.761719 33.894531 82.761719 33.5625 82.761719 33.230469 C 82.761719 33.023438 82.761719 32.816406 82.761719 32.609375 C 82.761719 31.886719 82.757812 31.164062 82.757812 30.441406 C 82.757812 29.765625 82.757812 29.09375 82.757812 28.421875 C 82.753906 27.839844 82.753906 27.261719 82.753906 26.683594 C 82.753906 26.339844 82.753906 25.992188 82.75 25.648438 C 82.75 25.324219 82.75 24.996094 82.75 24.671875 C 82.75 24.554688 82.75 24.433594 82.75 24.316406 C 82.75 24.152344 82.75 23.988281 82.75 23.828125 C 82.75 23.757812 82.75 23.757812 82.75 23.683594 C 82.753906 23.257812 82.902344 22.910156 83.199219 22.605469 C 83.628906 22.34375 84.015625 22.226562 84.523438 22.324219 C 84.925781 22.433594 85.144531 22.613281 85.371094 22.960938 C 85.519531 23.234375 85.539062 23.515625 85.570312 23.824219 C 85.613281 23.785156 85.660156 23.746094 85.703125 23.707031 C 86.125 23.351562 86.535156 23.066406 87.03125 22.828125 C 87.101562 22.792969 87.171875 22.757812 87.246094 22.722656 C 87.804688 22.464844 88.347656 22.320312 88.953125 22.230469 C 89.042969 22.214844 89.042969 22.214844 89.132812 22.199219 C 91.046875 21.957031 92.941406 22.519531 94.382812 23.789062 Z M 94.382812 23.789062 "/>
<path style=" stroke:none;fill-rule:nonzero;fill:rgb(84.313725%,84.313725%,84.313725%);fill-opacity:1;" d="M 112.964844 22.5625 C 113.359375 23.039062 113.628906 23.589844 113.902344 24.140625 C 113.949219 24.230469 113.992188 24.320312 114.039062 24.410156 C 114.160156 24.652344 114.28125 24.894531 114.402344 25.136719 C 114.527344 25.390625 114.65625 25.644531 114.78125 25.902344 C 114.996094 26.328125 115.207031 26.753906 115.421875 27.179688 C 115.667969 27.675781 115.914062 28.167969 116.160156 28.660156 C 116.421875 29.1875 116.683594 29.710938 116.945312 30.238281 C 117.023438 30.390625 117.097656 30.542969 117.171875 30.691406 C 117.292969 30.929688 117.410156 31.167969 117.527344 31.40625 C 117.570312 31.492188 117.617188 31.578125 117.660156 31.667969 C 117.71875 31.785156 117.777344 31.90625 117.835938 32.023438 C 117.871094 32.089844 117.902344 32.15625 117.9375 32.226562 C 118.007812 32.382812 118.007812 32.382812 118.007812 32.515625 C 118.050781 32.515625 118.09375 32.515625 118.140625 32.515625 C 118.152344 32.480469 118.164062 32.445312 118.175781 32.40625 C 118.296875 32.027344 118.441406 31.667969 118.605469 31.308594 C 118.628906 31.25 118.65625 31.191406 118.683594 31.132812 C 118.765625 30.945312 118.851562 30.753906 118.9375 30.566406 C 119.027344 30.363281 119.117188 30.164062 119.207031 29.960938 C 119.269531 29.820312 119.328125 29.683594 119.390625 29.546875 C 119.667969 28.925781 119.945312 28.300781 120.21875 27.679688 C 120.296875 27.503906 120.371094 27.332031 120.449219 27.15625 C 120.699219 26.59375 120.945312 26.03125 121.195312 25.464844 C 121.3125 25.191406 121.433594 24.917969 121.554688 24.644531 C 121.613281 24.511719 121.671875 24.382812 121.726562 24.25 C 121.808594 24.066406 121.886719 23.886719 121.96875 23.703125 C 121.992188 23.652344 122.011719 23.597656 122.039062 23.542969 C 122.484375 22.535156 122.484375 22.535156 122.9375 22.355469 C 123.453125 22.226562 123.863281 22.328125 124.3125 22.601562 C 124.523438 22.753906 124.65625 22.929688 124.773438 23.160156 C 124.828125 23.683594 124.734375 24.074219 124.511719 24.542969 C 124.484375 24.605469 124.460938 24.664062 124.429688 24.726562 C 124.375 24.851562 124.316406 24.972656 124.261719 25.097656 C 124.152344 25.328125 124.050781 25.5625 123.949219 25.796875 C 123.820312 26.089844 123.6875 26.382812 123.558594 26.675781 C 123.5 26.804688 123.441406 26.933594 123.386719 27.0625 C 123.296875 27.265625 123.207031 27.464844 123.117188 27.667969 C 122.914062 28.121094 122.710938 28.578125 122.511719 29.03125 C 121.957031 30.277344 121.402344 31.519531 120.84375 32.761719 C 120.441406 33.652344 120.046875 34.546875 119.65625 35.441406 C 119.265625 36.335938 118.867188 37.230469 118.464844 38.121094 C 118.175781 38.753906 117.894531 39.390625 117.613281 40.03125 C 117.574219 40.121094 117.574219 40.121094 117.53125 40.214844 C 117.402344 40.515625 117.273438 40.8125 117.144531 41.109375 C 116.417969 42.789062 116.417969 42.789062 116.015625 43 C 115.511719 43.089844 115.039062 43.046875 114.609375 42.761719 C 114.324219 42.53125 114.171875 42.296875 114.09375 41.9375 C 114.109375 41.425781 114.3125 41.007812 114.519531 40.542969 C 114.558594 40.457031 114.597656 40.371094 114.632812 40.285156 C 114.761719 39.996094 114.890625 39.707031 115.023438 39.417969 C 115.046875 39.363281 115.070312 39.308594 115.09375 39.253906 C 115.25 38.910156 115.402344 38.566406 115.558594 38.226562 C 115.636719 38.054688 115.710938 37.878906 115.789062 37.707031 C 115.839844 37.597656 115.890625 37.484375 115.941406 37.375 C 115.964844 37.320312 115.988281 37.265625 116.011719 37.210938 C 116.117188 36.980469 116.222656 36.746094 116.328125 36.515625 C 116.417969 36.320312 116.507812 36.121094 116.597656 35.925781 C 116.621094 35.871094 116.648438 35.820312 116.671875 35.765625 C 116.769531 35.542969 116.824219 35.414062 116.761719 35.175781 C 116.6875 34.984375 116.601562 34.804688 116.507812 34.621094 C 116.472656 34.554688 116.4375 34.488281 116.402344 34.421875 C 116.347656 34.316406 116.347656 34.316406 116.289062 34.207031 C 116.25 34.132812 116.214844 34.058594 116.171875 33.984375 C 115.902344 33.46875 115.625 32.957031 115.34375 32.449219 C 115 31.820312 114.675781 31.175781 114.347656 30.535156 C 114.019531 29.894531 113.683594 29.257812 113.332031 28.625 C 113.007812 28.035156 112.703125 27.433594 112.394531 26.832031 C 112.058594 26.175781 111.71875 25.527344 111.355469 24.886719 C 110.769531 23.832031 110.769531 23.832031 110.859375 23.25 C 110.972656 22.882812 111.191406 22.636719 111.511719 22.433594 C 112.011719 22.253906 112.519531 22.246094 112.964844 22.5625 Z M 112.964844 22.5625 "/>
<path style=" stroke:none;fill-rule:nonzero;fill:rgb(84.313725%,84.313725%,84.313725%);fill-opacity:1;" d="M 108.054688 16.15625 C 108.109375 16.15625 108.167969 16.152344 108.230469 16.152344 C 108.648438 16.152344 108.925781 16.257812 109.25 16.523438 C 109.566406 16.863281 109.609375 17.144531 109.605469 17.59375 C 109.570312 17.886719 109.460938 18.105469 109.25 18.316406 C 108.878906 18.574219 108.554688 18.632812 108.105469 18.679688 C 107.195312 18.796875 106.425781 19.015625 105.792969 19.734375 C 105.234375 20.496094 105.078125 21.296875 105.035156 22.21875 C 105.03125 22.277344 105.03125 22.335938 105.027344 22.398438 C 105.019531 22.539062 105.011719 22.683594 105.003906 22.828125 C 105.089844 22.824219 105.171875 22.824219 105.257812 22.824219 C 105.570312 22.820312 105.882812 22.816406 106.195312 22.816406 C 106.328125 22.816406 106.464844 22.8125 106.597656 22.8125 C 106.792969 22.808594 106.988281 22.808594 107.183594 22.808594 C 107.273438 22.804688 107.273438 22.804688 107.363281 22.804688 C 107.828125 22.804688 108.175781 22.894531 108.574219 23.140625 C 108.824219 23.398438 108.929688 23.675781 108.945312 24.027344 C 108.902344 24.46875 108.722656 24.730469 108.386719 25.015625 C 108.0625 25.199219 107.71875 25.167969 107.355469 25.164062 C 107.289062 25.164062 107.222656 25.164062 107.152344 25.160156 C 106.9375 25.160156 106.726562 25.160156 106.511719 25.15625 C 106.363281 25.15625 106.21875 25.15625 106.074219 25.15625 C 105.71875 25.15625 105.363281 25.152344 105.003906 25.148438 C 105.003906 25.203125 105.007812 25.257812 105.007812 25.3125 C 105.011719 26.625 105.015625 27.9375 105.015625 29.25 C 105.015625 29.882812 105.019531 30.519531 105.019531 31.152344 C 105.023438 31.707031 105.023438 32.257812 105.023438 32.8125 C 105.023438 33.105469 105.023438 33.398438 105.027344 33.691406 C 105.027344 33.964844 105.027344 34.242188 105.027344 34.519531 C 105.027344 34.617188 105.027344 34.71875 105.03125 34.820312 C 105.039062 35.988281 105.039062 35.988281 104.628906 36.417969 C 104.210938 36.695312 103.851562 36.808594 103.347656 36.761719 C 102.9375 36.628906 102.601562 36.425781 102.375 36.050781 C 102.277344 35.808594 102.261719 35.640625 102.261719 35.378906 C 102.261719 35.335938 102.261719 35.292969 102.261719 35.246094 C 102.261719 35.101562 102.261719 34.953125 102.261719 34.808594 C 102.261719 34.703125 102.261719 34.597656 102.261719 34.492188 C 102.261719 34.207031 102.265625 33.921875 102.265625 33.636719 C 102.265625 33.335938 102.265625 33.039062 102.265625 32.742188 C 102.269531 32.175781 102.269531 31.609375 102.273438 31.046875 C 102.273438 30.402344 102.273438 29.761719 102.277344 29.117188 C 102.277344 27.792969 102.28125 26.472656 102.285156 25.148438 C 102.242188 25.152344 102.199219 25.152344 102.15625 25.152344 C 101.953125 25.160156 101.753906 25.164062 101.554688 25.167969 C 101.488281 25.167969 101.417969 25.171875 101.347656 25.171875 C 100.921875 25.179688 100.582031 25.144531 100.230469 24.882812 C 99.945312 24.523438 99.851562 24.210938 99.898438 23.757812 C 100.011719 23.378906 100.167969 23.179688 100.496094 22.960938 C 100.882812 22.816406 101.238281 22.8125 101.652344 22.820312 C 101.710938 22.820312 101.773438 22.820312 101.835938 22.820312 C 101.988281 22.820312 102.136719 22.824219 102.285156 22.828125 C 102.285156 22.742188 102.28125 22.660156 102.277344 22.574219 C 102.246094 20.941406 102.605469 19.273438 103.75 18.046875 C 103.878906 17.910156 104.011719 17.78125 104.144531 17.652344 C 104.183594 17.609375 104.226562 17.570312 104.265625 17.527344 C 105.300781 16.570312 106.675781 16.1875 108.054688 16.15625 Z M 108.054688 16.15625 "/>
<path style=" stroke:none;fill-rule:nonzero;fill:rgb(84.313725%,84.313725%,84.313725%);fill-opacity:1;" d="M 150.511719 17.917969 C 150.800781 18.148438 150.992188 18.425781 151.105469 18.78125 C 151.144531 19.09375 151.136719 19.402344 151.132812 19.714844 C 151.132812 19.804688 151.132812 19.898438 151.132812 19.988281 C 151.132812 20.222656 151.128906 20.457031 151.125 20.691406 C 151.121094 20.933594 151.121094 21.171875 151.121094 21.414062 C 151.117188 21.886719 151.113281 22.355469 151.105469 22.828125 C 151.214844 22.824219 151.214844 22.824219 151.324219 22.824219 C 151.589844 22.820312 151.859375 22.816406 152.125 22.816406 C 152.242188 22.816406 152.359375 22.8125 152.472656 22.8125 C 152.640625 22.808594 152.804688 22.808594 152.972656 22.808594 C 153.050781 22.804688 153.050781 22.804688 153.128906 22.804688 C 153.53125 22.804688 153.910156 22.871094 154.230469 23.140625 C 154.257812 23.179688 154.289062 23.21875 154.320312 23.257812 C 154.351562 23.296875 154.382812 23.335938 154.414062 23.375 C 154.601562 23.660156 154.578125 23.960938 154.558594 24.285156 C 154.464844 24.648438 154.230469 24.863281 153.917969 25.058594 C 153.632812 25.175781 153.394531 25.175781 153.089844 25.167969 C 153.03125 25.167969 152.976562 25.167969 152.917969 25.167969 C 152.738281 25.167969 152.554688 25.164062 152.375 25.164062 C 152.253906 25.160156 152.128906 25.160156 152.007812 25.160156 C 151.707031 25.15625 151.40625 25.152344 151.105469 25.148438 C 151.109375 26.042969 151.113281 26.9375 151.121094 27.832031 C 151.121094 28.246094 151.125 28.660156 151.125 29.074219 C 151.125 29.476562 151.128906 29.878906 151.132812 30.277344 C 151.132812 30.429688 151.132812 30.582031 151.132812 30.734375 C 151.121094 32.285156 151.121094 32.285156 151.902344 33.578125 C 152.242188 33.839844 152.550781 33.992188 152.980469 33.992188 C 153.046875 33.996094 153.109375 33.996094 153.179688 33.996094 C 153.3125 34 153.449219 34 153.585938 34 C 154.007812 34.011719 154.335938 34.0625 154.6875 34.308594 C 155.082031 34.71875 155.117188 35.054688 155.109375 35.609375 C 155.074219 35.992188 154.902344 36.148438 154.644531 36.410156 C 153.988281 36.910156 153.097656 36.8125 152.320312 36.714844 C 151.171875 36.511719 150.101562 35.871094 149.402344 34.925781 C 148.617188 33.71875 148.375 32.515625 148.378906 31.09375 C 148.378906 31.027344 148.378906 30.964844 148.378906 30.898438 C 148.378906 30.6875 148.378906 30.472656 148.382812 30.261719 C 148.382812 30.113281 148.382812 29.96875 148.382812 29.820312 C 148.382812 29.433594 148.382812 29.046875 148.382812 28.660156 C 148.382812 28.265625 148.382812 27.867188 148.382812 27.472656 C 148.386719 26.699219 148.386719 25.925781 148.386719 25.148438 C 148.324219 25.152344 148.324219 25.152344 148.257812 25.152344 C 148.058594 25.160156 147.855469 25.164062 147.65625 25.167969 C 147.589844 25.167969 147.519531 25.171875 147.449219 25.171875 C 147.019531 25.179688 146.6875 25.140625 146.332031 24.882812 C 146.003906 24.53125 145.976562 24.296875 145.980469 23.824219 C 146.007812 23.523438 146.074219 23.394531 146.265625 23.160156 C 146.597656 22.90625 146.914062 22.816406 147.324219 22.820312 C 147.386719 22.820312 147.449219 22.820312 147.511719 22.820312 C 147.578125 22.820312 147.640625 22.824219 147.707031 22.824219 C 147.773438 22.824219 147.839844 22.824219 147.90625 22.824219 C 148.066406 22.824219 148.226562 22.824219 148.386719 22.828125 C 148.386719 22.78125 148.386719 22.730469 148.386719 22.683594 C 148.382812 22.230469 148.378906 21.777344 148.378906 21.328125 C 148.375 21.09375 148.375 20.863281 148.371094 20.628906 C 148.371094 20.363281 148.367188 20.09375 148.367188 19.828125 C 148.367188 19.746094 148.367188 19.660156 148.363281 19.578125 C 148.363281 19.0625 148.382812 18.578125 148.707031 18.160156 C 149.277344 17.699219 149.839844 17.566406 150.511719 17.917969 Z M 150.511719 17.917969 "/>
<path style=" stroke:none;fill-rule:nonzero;fill:rgb(84.313725%,84.313725%,84.313725%);fill-opacity:1;" d="M 194.421875 17.917969 C 194.714844 18.148438 194.902344 18.425781 195.019531 18.78125 C 195.054688 19.09375 195.050781 19.402344 195.046875 19.714844 C 195.046875 19.804688 195.046875 19.898438 195.042969 19.988281 C 195.042969 20.222656 195.042969 20.457031 195.039062 20.691406 C 195.035156 20.933594 195.035156 21.171875 195.03125 21.414062 C 195.03125 21.886719 195.027344 22.355469 195.019531 22.828125 C 195.128906 22.824219 195.128906 22.824219 195.238281 22.824219 C 195.503906 22.820312 195.773438 22.816406 196.039062 22.816406 C 196.15625 22.816406 196.269531 22.8125 196.386719 22.8125 C 196.550781 22.808594 196.71875 22.808594 196.886719 22.808594 C 196.960938 22.804688 196.960938 22.804688 197.039062 22.804688 C 197.445312 22.804688 197.820312 22.871094 198.140625 23.140625 C 198.171875 23.179688 198.203125 23.21875 198.234375 23.257812 C 198.265625 23.296875 198.296875 23.335938 198.328125 23.375 C 198.511719 23.660156 198.492188 23.960938 198.46875 24.285156 C 198.378906 24.648438 198.144531 24.863281 197.832031 25.058594 C 197.546875 25.175781 197.308594 25.175781 197.003906 25.167969 C 196.945312 25.167969 196.886719 25.167969 196.828125 25.167969 C 196.648438 25.167969 196.46875 25.164062 196.289062 25.164062 C 196.164062 25.160156 196.042969 25.160156 195.921875 25.160156 C 195.621094 25.15625 195.320312 25.152344 195.019531 25.148438 C 195.023438 26.042969 195.027344 26.9375 195.03125 27.832031 C 195.035156 28.246094 195.035156 28.660156 195.039062 29.074219 C 195.039062 29.476562 195.042969 29.878906 195.042969 30.277344 C 195.046875 30.429688 195.046875 30.582031 195.046875 30.734375 C 195.035156 32.285156 195.035156 32.285156 195.816406 33.578125 C 196.152344 33.839844 196.460938 33.992188 196.894531 33.992188 C 196.957031 33.996094 197.023438 33.996094 197.089844 33.996094 C 197.226562 34 197.363281 34 197.5 34 C 197.921875 34.011719 198.25 34.0625 198.601562 34.308594 C 198.992188 34.71875 199.03125 35.054688 199.019531 35.609375 C 198.984375 35.992188 198.816406 36.148438 198.554688 36.410156 C 197.902344 36.910156 197.007812 36.8125 196.234375 36.714844 C 195.082031 36.511719 194.011719 35.871094 193.316406 34.925781 C 192.53125 33.71875 192.285156 32.515625 192.292969 31.09375 C 192.292969 31.027344 192.292969 30.964844 192.292969 30.898438 C 192.292969 30.6875 192.292969 30.472656 192.292969 30.261719 C 192.292969 30.113281 192.292969 29.96875 192.292969 29.820312 C 192.292969 29.433594 192.296875 29.046875 192.296875 28.660156 C 192.296875 28.265625 192.296875 27.867188 192.296875 27.472656 C 192.296875 26.699219 192.300781 25.925781 192.300781 25.148438 C 192.234375 25.152344 192.234375 25.152344 192.167969 25.152344 C 191.96875 25.160156 191.769531 25.164062 191.570312 25.167969 C 191.503906 25.167969 191.433594 25.171875 191.363281 25.171875 C 190.933594 25.179688 190.601562 25.140625 190.242188 24.882812 C 189.921875 24.546875 189.886719 24.261719 189.894531 23.808594 C 189.921875 23.519531 189.996094 23.386719 190.175781 23.160156 C 190.507812 22.90625 190.828125 22.816406 191.238281 22.820312 C 191.300781 22.820312 191.363281 22.820312 191.425781 22.820312 C 191.488281 22.820312 191.554688 22.824219 191.621094 22.824219 C 191.6875 22.824219 191.75 22.824219 191.816406 22.824219 C 191.980469 22.824219 192.140625 22.824219 192.300781 22.828125 C 192.300781 22.78125 192.300781 22.730469 192.300781 22.683594 C 192.296875 22.230469 192.292969 21.777344 192.289062 21.328125 C 192.289062 21.09375 192.289062 20.863281 192.285156 20.628906 C 192.28125 20.363281 192.28125 20.09375 192.28125 19.828125 C 192.28125 19.746094 192.277344 19.660156 192.277344 19.578125 C 192.277344 19.0625 192.292969 18.578125 192.621094 18.160156 C 193.191406 17.699219 193.75 17.566406 194.421875 17.917969 Z M 194.421875 17.917969 "/>
<path style=" stroke:none;fill-rule:nonzero;fill:rgb(84.313725%,84.313725%,84.313725%);fill-opacity:1;" d="M 75.714844 16.238281 C 76.023438 16.378906 76.230469 16.570312 76.414062 16.855469 C 76.554688 17.285156 76.566406 17.6875 76.566406 18.136719 C 76.566406 18.246094 76.566406 18.246094 76.566406 18.363281 C 76.566406 18.609375 76.566406 18.859375 76.566406 19.105469 C 76.566406 19.285156 76.566406 19.464844 76.566406 19.640625 C 76.570312 20.074219 76.570312 20.507812 76.570312 20.941406 C 76.570312 21.296875 76.570312 21.648438 76.570312 22 C 76.570312 22.074219 76.570312 22.074219 76.570312 22.152344 C 76.570312 22.253906 76.570312 22.355469 76.570312 22.460938 C 76.570312 23.414062 76.570312 24.371094 76.570312 25.328125 C 76.570312 26.203125 76.570312 27.078125 76.570312 27.953125 C 76.574219 28.851562 76.574219 29.75 76.574219 30.648438 C 76.574219 31.152344 76.574219 31.65625 76.574219 32.160156 C 76.574219 32.589844 76.574219 33.019531 76.574219 33.449219 C 76.574219 33.667969 76.574219 33.886719 76.574219 34.105469 C 76.574219 34.34375 76.574219 34.578125 76.574219 34.816406 C 76.574219 34.886719 76.574219 34.953125 76.574219 35.027344 C 76.570312 35.589844 76.457031 36.042969 76.066406 36.464844 C 75.769531 36.71875 75.40625 36.796875 75.023438 36.78125 C 74.601562 36.722656 74.300781 36.566406 74.027344 36.230469 C 73.738281 35.824219 73.726562 35.5 73.730469 35.007812 C 73.730469 34.933594 73.730469 34.855469 73.726562 34.777344 C 73.726562 34.523438 73.726562 34.269531 73.730469 34.015625 C 73.730469 33.832031 73.730469 33.652344 73.726562 33.46875 C 73.726562 33.023438 73.726562 32.582031 73.730469 32.136719 C 73.730469 31.621094 73.730469 31.105469 73.730469 30.585938 C 73.730469 29.664062 73.730469 28.742188 73.730469 27.820312 C 73.734375 26.925781 73.734375 26.03125 73.734375 25.132812 C 73.730469 24.160156 73.730469 23.183594 73.734375 22.210938 C 73.734375 22.105469 73.734375 22.003906 73.734375 21.898438 C 73.734375 21.847656 73.734375 21.796875 73.734375 21.742188 C 73.734375 21.382812 73.734375 21.023438 73.734375 20.664062 C 73.734375 20.222656 73.734375 19.785156 73.734375 19.34375 C 73.734375 19.121094 73.734375 18.898438 73.734375 18.671875 C 73.734375 18.429688 73.734375 18.1875 73.738281 17.945312 C 73.738281 17.875 73.734375 17.804688 73.734375 17.730469 C 73.738281 17.292969 73.773438 16.9375 74.074219 16.59375 C 74.113281 16.5625 74.148438 16.535156 74.191406 16.503906 C 74.226562 16.472656 74.265625 16.441406 74.304688 16.40625 C 74.726562 16.117188 75.226562 16.101562 75.714844 16.238281 Z M 75.714844 16.238281 "/>
<path style=" stroke:none;fill-rule:nonzero;fill:rgb(84.313725%,84.313725%,84.313725%);fill-opacity:1;" d="M 169.277344 22.773438 C 169.566406 23.015625 169.707031 23.246094 169.746094 23.625 C 169.734375 24.019531 169.59375 24.292969 169.34375 24.589844 C 169.042969 24.8125 168.726562 24.835938 168.363281 24.785156 C 168.320312 24.777344 168.273438 24.769531 168.230469 24.765625 C 168.140625 24.75 168.054688 24.738281 167.964844 24.726562 C 167.921875 24.71875 167.875 24.710938 167.828125 24.707031 C 166.339844 24.492188 164.78125 24.539062 163.511719 25.441406 C 162.824219 25.980469 162.5 26.609375 162.382812 27.472656 C 162.367188 27.753906 162.367188 28.03125 162.367188 28.3125 C 162.367188 28.394531 162.367188 28.476562 162.367188 28.558594 C 162.367188 28.734375 162.367188 28.90625 162.367188 29.082031 C 162.367188 29.359375 162.363281 29.632812 162.363281 29.910156 C 162.359375 30.691406 162.359375 31.476562 162.359375 32.261719 C 162.359375 32.695312 162.355469 33.128906 162.355469 33.5625 C 162.355469 33.835938 162.355469 34.109375 162.355469 34.386719 C 162.355469 34.597656 162.351562 34.804688 162.351562 35.015625 C 162.351562 35.09375 162.351562 35.167969 162.351562 35.246094 C 162.347656 35.769531 162.25 36.09375 161.9375 36.523438 C 161.601562 36.765625 161.128906 36.820312 160.726562 36.761719 C 160.332031 36.652344 160.011719 36.53125 159.796875 36.164062 C 159.65625 35.882812 159.644531 35.628906 159.648438 35.320312 C 159.648438 35.269531 159.648438 35.21875 159.644531 35.164062 C 159.644531 34.996094 159.644531 34.824219 159.644531 34.652344 C 159.644531 34.527344 159.644531 34.40625 159.644531 34.28125 C 159.644531 33.949219 159.644531 33.617188 159.644531 33.28125 C 159.644531 33.003906 159.644531 32.726562 159.644531 32.445312 C 159.644531 31.789062 159.644531 31.132812 159.644531 30.476562 C 159.644531 29.796875 159.644531 29.121094 159.640625 28.441406 C 159.640625 27.859375 159.640625 27.277344 159.640625 26.695312 C 159.640625 26.347656 159.640625 26 159.640625 25.652344 C 159.636719 25.328125 159.636719 25 159.640625 24.671875 C 159.640625 24.550781 159.640625 24.433594 159.640625 24.3125 C 159.636719 24.148438 159.636719 23.984375 159.640625 23.820312 C 159.640625 23.773438 159.636719 23.726562 159.636719 23.679688 C 159.640625 23.265625 159.75 22.96875 160.007812 22.644531 C 160.339844 22.378906 160.6875 22.257812 161.117188 22.277344 C 161.5625 22.339844 161.902344 22.464844 162.183594 22.828125 C 162.3125 23.089844 162.339844 23.320312 162.359375 23.609375 C 162.363281 23.6875 162.367188 23.765625 162.375 23.84375 C 162.378906 23.902344 162.378906 23.960938 162.382812 24.023438 C 162.441406 23.941406 162.441406 23.941406 162.5 23.859375 C 163.972656 22.125 167.367188 21.441406 169.277344 22.773438 Z M 169.277344 22.773438 "/>
</g>
</svg>
