<?xml version="1.0" encoding="UTF-8"?>
<svg xmlns="http://www.w3.org/2000/svg" xmlns:xlink="http://www.w3.org/1999/xlink" width="200px" height="43px" viewBox="0 0 200 43" version="1.1">
<g id="surface1">
<path style=" stroke:none;fill-rule:nonzero;fill:rgb(45.882353%,11.764706%,89.019608%);fill-opacity:1;" d="M 34.265625 0 C 34.957031 0.0859375 35.707031 1.167969 36.191406 1.648438 C 36.226562 1.683594 36.257812 1.714844 36.292969 1.75 C 36.675781 2.132812 37.050781 2.519531 37.398438 2.933594 C 37.453125 2.996094 37.453125 2.996094 37.507812 3.0625 C 40.691406 6.8125 42.765625 11.382812 43.398438 16.265625 C 43.464844 16.222656 43.53125 16.179688 43.601562 16.132812 C 47.097656 13.84375 51 12.148438 55.199219 11.734375 C 55.253906 11.726562 55.304688 11.722656 55.359375 11.714844 C 56.519531 11.589844 57.675781 11.585938 58.835938 11.585938 C 58.917969 11.585938 58.996094 11.585938 59.078125 11.585938 C 59.304688 11.585938 59.53125 11.589844 59.757812 11.589844 C 59.828125 11.589844 59.898438 11.589844 59.96875 11.589844 C 60.03125 11.589844 60.097656 11.589844 60.160156 11.589844 C 60.21875 11.589844 60.273438 11.589844 60.332031 11.589844 C 60.464844 11.601562 60.464844 11.601562 60.601562 11.667969 C 60.707031 12.324219 60.683594 13 60.683594 13.667969 C 60.683594 13.730469 60.683594 13.792969 60.683594 13.859375 C 60.679688 16.683594 60.257812 19.4375 59.398438 22.132812 C 59.457031 22.136719 59.515625 22.140625 59.570312 22.144531 C 60.136719 22.179688 60.6875 22.242188 61.242188 22.339844 C 61.367188 22.363281 61.367188 22.363281 61.492188 22.386719 C 63.46875 22.746094 65.378906 23.328125 67.222656 24.125 C 67.34375 24.175781 67.46875 24.230469 67.589844 24.28125 C 67.78125 24.359375 67.96875 24.441406 68.152344 24.519531 C 68.210938 24.542969 68.269531 24.570312 68.328125 24.59375 C 68.378906 24.617188 68.433594 24.640625 68.488281 24.664062 C 68.554688 24.695312 68.554688 24.695312 68.625 24.722656 C 68.734375 24.800781 68.734375 24.800781 68.789062 24.917969 C 68.804688 25.121094 68.746094 25.253906 68.671875 25.441406 C 68.640625 25.515625 68.613281 25.59375 68.582031 25.667969 C 68.535156 25.789062 68.535156 25.789062 68.484375 25.914062 C 68.449219 25.996094 68.414062 26.082031 68.382812 26.164062 C 67.46875 28.425781 66.40625 30.578125 64.933594 32.535156 C 64.90625 32.570312 64.878906 32.605469 64.851562 32.640625 C 63.753906 34.113281 62.488281 35.566406 61.066406 36.734375 C 61.03125 36.761719 60.996094 36.792969 60.957031 36.824219 C 59.949219 37.660156 58.902344 38.421875 57.800781 39.132812 C 57.738281 39.171875 57.738281 39.171875 57.679688 39.210938 C 53.707031 41.75 48.960938 43.015625 44.269531 43.015625 C 44.164062 43.015625 44.164062 43.015625 44.054688 43.015625 C 40.957031 43.015625 37.5625 42.570312 34.738281 41.210938 C 34.277344 41.039062 33.808594 41.3125 33.375 41.476562 C 30.550781 42.507812 27.636719 43.015625 24.632812 43.015625 C 24.523438 43.015625 24.523438 43.015625 24.414062 43.015625 C 23.261719 43.015625 22.140625 42.976562 21 42.800781 C 20.921875 42.789062 20.84375 42.777344 20.765625 42.765625 C 18.273438 42.375 15.738281 41.683594 13.492188 40.515625 C 13.335938 40.4375 13.183594 40.359375 13.023438 40.28125 C 12.039062 39.808594 11.054688 39.269531 10.183594 38.605469 C 9.988281 38.457031 9.785156 38.316406 9.582031 38.175781 C 8.898438 37.699219 8.257812 37.1875 7.640625 36.625 C 7.53125 36.527344 7.421875 36.429688 7.316406 36.332031 C 6.882812 35.949219 6.46875 35.550781 6.0625 35.140625 C 5.96875 35.050781 5.96875 35.050781 5.875 34.957031 C 5.464844 34.546875 5.09375 34.121094 4.734375 33.667969 C 4.664062 33.582031 4.597656 33.5 4.527344 33.417969 C 2.824219 31.324219 1.53125 28.964844 0.535156 26.464844 C 0.492188 26.363281 0.492188 26.363281 0.449219 26.257812 C 0.371094 26.066406 0.296875 25.871094 0.222656 25.675781 C 0.1875 25.589844 0.1875 25.589844 0.152344 25.5 C 0.121094 25.417969 0.121094 25.417969 0.0898438 25.339844 C 0.0742188 25.292969 0.0546875 25.246094 0.0390625 25.199219 C 0 25.066406 0 25.066406 0 24.800781 C 6.195312 22.09375 6.195312 22.09375 9.398438 22.132812 C 9.382812 22.082031 9.367188 22.03125 9.351562 21.976562 C 8.78125 20.125 8.378906 18.269531 8.199219 16.332031 C 8.195312 16.269531 8.1875 16.207031 8.179688 16.140625 C 8.117188 15.394531 8.125 14.644531 8.125 13.894531 C 8.125 13.660156 8.125 13.425781 8.125 13.191406 C 8.125 13.042969 8.125 12.894531 8.125 12.742188 C 8.125 12.671875 8.125 12.605469 8.125 12.53125 C 8.125 12.433594 8.125 12.433594 8.125 12.335938 C 8.125 12.277344 8.125 12.222656 8.125 12.164062 C 8.132812 11.988281 8.152344 11.832031 8.199219 11.667969 C 8.359375 11.585938 8.460938 11.589844 8.636719 11.589844 C 8.703125 11.589844 8.765625 11.589844 8.832031 11.589844 C 8.902344 11.589844 8.96875 11.589844 9.042969 11.589844 C 9.113281 11.589844 9.183594 11.589844 9.257812 11.589844 C 9.492188 11.585938 9.726562 11.585938 9.960938 11.585938 C 10.042969 11.585938 10.121094 11.585938 10.203125 11.585938 C 15.289062 11.597656 20.167969 12.882812 24.464844 15.667969 C 24.566406 15.730469 24.664062 15.792969 24.761719 15.855469 C 24.972656 15.992188 25.1875 16.128906 25.398438 16.265625 C 25.410156 16.191406 25.417969 16.117188 25.429688 16.039062 C 26.21875 10.246094 29.089844 5.164062 33.1875 1.066406 C 33.304688 0.949219 33.425781 0.828125 33.542969 0.710938 C 33.617188 0.636719 33.691406 0.558594 33.765625 0.484375 C 33.800781 0.449219 33.835938 0.414062 33.871094 0.378906 C 34.117188 0.132812 34.117188 0.132812 34.265625 0.132812 C 34.265625 0.0898438 34.265625 0.046875 34.265625 0 Z M 34.332031 5.332031 C 34.210938 5.460938 34.09375 5.589844 33.980469 5.726562 C 33.945312 5.765625 33.910156 5.808594 33.871094 5.851562 C 32.714844 7.238281 31.796875 8.785156 31 10.398438 C 30.972656 10.453125 30.945312 10.507812 30.917969 10.566406 C 29.71875 13 29.117188 15.742188 28.945312 18.441406 C 28.933594 18.578125 28.921875 18.71875 28.910156 18.855469 C 28.882812 19.214844 28.882812 19.214844 29.019531 19.53125 C 29.140625 19.652344 29.269531 19.757812 29.398438 19.867188 C 29.472656 19.945312 29.546875 20.027344 29.617188 20.109375 C 29.675781 20.175781 29.675781 20.175781 29.734375 20.246094 C 29.800781 20.320312 29.800781 20.320312 29.867188 20.398438 C 29.917969 20.460938 29.972656 20.519531 30.027344 20.582031 C 31.835938 22.664062 33.304688 25.109375 34.332031 27.667969 C 34.378906 27.667969 34.421875 27.667969 34.464844 27.667969 C 34.5 27.59375 34.53125 27.519531 34.566406 27.445312 C 35.453125 25.429688 35.453125 25.429688 35.996094 24.515625 C 36.070312 24.398438 36.136719 24.277344 36.207031 24.15625 C 37.214844 22.4375 38.457031 20.8125 39.867188 19.398438 C 39.882812 19.273438 39.882812 19.273438 39.871094 19.125 C 39.871094 19.066406 39.867188 19.011719 39.863281 18.953125 C 39.863281 18.890625 39.859375 18.828125 39.855469 18.761719 C 39.851562 18.695312 39.847656 18.632812 39.84375 18.566406 C 39.578125 14.082031 38.011719 9.695312 35.171875 6.195312 C 35.074219 6.074219 34.976562 5.953125 34.878906 5.828125 C 34.679688 5.574219 34.679688 5.574219 34.464844 5.332031 C 34.421875 5.332031 34.378906 5.332031 34.332031 5.332031 Z M 11.933594 15.398438 C 12.011719 17.574219 12.414062 20.097656 13.398438 22.066406 C 13.59375 22.101562 13.59375 22.101562 13.835938 22.121094 C 13.929688 22.128906 14.023438 22.140625 14.117188 22.148438 C 14.167969 22.152344 14.21875 22.160156 14.269531 22.164062 C 16.105469 22.34375 17.910156 22.691406 19.667969 23.265625 C 19.726562 23.285156 19.785156 23.304688 19.84375 23.324219 C 20.234375 23.453125 20.617188 23.589844 21 23.734375 C 21.046875 23.75 21.089844 23.765625 21.136719 23.785156 C 22.539062 24.316406 23.933594 24.996094 25.199219 25.800781 C 25.253906 25.835938 25.308594 25.867188 25.363281 25.902344 C 26.011719 26.316406 26.652344 26.734375 27.265625 27.199219 C 27.335938 27.25 27.402344 27.300781 27.472656 27.351562 C 27.9375 27.699219 28.367188 28.070312 28.789062 28.46875 C 28.9375 28.609375 29.089844 28.746094 29.246094 28.878906 C 29.566406 29.160156 29.871094 29.457031 30.171875 29.757812 C 30.265625 29.855469 30.363281 29.949219 30.457031 30.042969 C 30.847656 30.429688 31.203125 30.828125 31.535156 31.265625 C 31.625 31.082031 31.574219 31.011719 31.511719 30.820312 C 31.488281 30.753906 31.46875 30.691406 31.445312 30.625 C 31.410156 30.519531 31.410156 30.519531 31.375 30.414062 C 31.351562 30.339844 31.328125 30.269531 31.300781 30.195312 C 31.058594 29.492188 30.773438 28.8125 30.464844 28.132812 C 30.441406 28.078125 30.417969 28.023438 30.390625 27.96875 C 29.167969 25.25 27.195312 22.550781 24.855469 20.683594 C 24.664062 20.53125 24.480469 20.375 24.296875 20.214844 C 23.160156 19.273438 21.910156 18.480469 20.601562 17.800781 C 20.527344 17.761719 20.453125 17.722656 20.378906 17.679688 C 19.832031 17.394531 19.269531 17.152344 18.695312 16.921875 C 18.59375 16.878906 18.59375 16.878906 18.492188 16.839844 C 17.628906 16.5 16.753906 16.21875 15.855469 15.996094 C 15.808594 15.984375 15.761719 15.972656 15.71875 15.960938 C 14.472656 15.652344 13.214844 15.480469 11.933594 15.398438 Z M 43.667969 20.933594 C 43.609375 20.984375 43.554688 21.03125 43.496094 21.082031 C 42.800781 21.695312 42.125 22.34375 41.554688 23.074219 C 41.4375 23.21875 41.320312 23.363281 41.199219 23.507812 C 40.378906 24.488281 39.691406 25.550781 39.066406 26.667969 C 39.039062 26.71875 39.007812 26.769531 38.976562 26.824219 C 38.308594 28.027344 37.769531 29.292969 37.351562 30.605469 C 37.332031 30.65625 37.316406 30.707031 37.300781 30.761719 C 37.207031 31.015625 37.207031 31.015625 37.265625 31.265625 C 37.320312 31.203125 37.371094 31.144531 37.425781 31.078125 C 37.78125 30.660156 38.136719 30.246094 38.535156 29.867188 C 38.726562 29.675781 38.917969 29.480469 39.105469 29.289062 C 39.605469 28.78125 40.101562 28.300781 40.667969 27.867188 C 40.753906 27.800781 40.839844 27.730469 40.925781 27.664062 C 41.554688 27.171875 42.203125 26.710938 42.867188 26.265625 C 42.925781 26.226562 42.984375 26.1875 43.046875 26.144531 C 44.871094 24.953125 46.863281 24.003906 48.933594 23.332031 C 49.019531 23.304688 49.019531 23.304688 49.109375 23.273438 C 51.15625 22.605469 53.257812 22.253906 55.398438 22.066406 C 56.203125 19.996094 56.914062 17.644531 56.867188 15.398438 C 52.023438 15.398438 47.234375 17.808594 43.667969 20.933594 Z M 8.535156 26 C 8.464844 26.011719 8.394531 26.023438 8.324219 26.035156 C 7.183594 26.234375 6.035156 26.5 4.933594 26.867188 C 4.972656 27.179688 5.105469 27.433594 5.253906 27.707031 C 5.28125 27.757812 5.308594 27.808594 5.335938 27.859375 C 6.636719 30.246094 8.449219 32.519531 10.601562 34.199219 C 10.679688 34.265625 10.757812 34.328125 10.835938 34.394531 C 14.238281 37.167969 18.386719 38.753906 22.734375 39.199219 C 22.820312 39.207031 22.90625 39.21875 22.996094 39.226562 C 23.242188 39.246094 23.488281 39.257812 23.734375 39.265625 C 23.792969 39.269531 23.847656 39.269531 23.910156 39.273438 C 26.527344 39.339844 29.035156 38.902344 31.535156 38.132812 C 30.820312 36.671875 30.011719 35.339844 29 34.066406 C 28.925781 33.972656 28.925781 33.972656 28.851562 33.878906 C 28.039062 32.871094 27.128906 31.894531 26.132812 31.066406 C 26.078125 31.019531 26.019531 30.96875 25.964844 30.917969 C 25.402344 30.4375 24.808594 30.015625 24.199219 29.601562 C 24.128906 29.550781 24.0625 29.503906 23.988281 29.453125 C 19.554688 26.433594 13.839844 25.113281 8.535156 26 Z M 44.398438 29.734375 C 44.339844 29.773438 44.28125 29.816406 44.222656 29.859375 C 42.667969 30.960938 41.164062 32.292969 40 33.800781 C 39.945312 33.867188 39.890625 33.933594 39.835938 34.003906 C 38.820312 35.246094 37.972656 36.628906 37.265625 38.066406 C 37.441406 38.242188 37.589844 38.265625 37.828125 38.332031 C 37.871094 38.34375 37.914062 38.355469 37.957031 38.371094 C 38.101562 38.410156 38.242188 38.449219 38.386719 38.488281 C 38.4375 38.5 38.484375 38.515625 38.535156 38.527344 C 44.203125 40.058594 50.214844 39.160156 55.285156 36.246094 C 56.570312 35.488281 57.746094 34.578125 58.867188 33.601562 C 58.925781 33.546875 58.984375 33.496094 59.046875 33.441406 C 59.671875 32.890625 60.261719 32.304688 60.800781 31.667969 C 60.851562 31.605469 60.90625 31.546875 60.960938 31.484375 C 62.003906 30.289062 62.871094 28.953125 63.621094 27.558594 C 63.644531 27.511719 63.671875 27.464844 63.699219 27.414062 C 63.800781 27.21875 63.867188 27.089844 63.867188 26.867188 C 62.300781 26.410156 60.757812 26.042969 59.132812 25.867188 C 59.082031 25.859375 59.027344 25.855469 58.976562 25.847656 C 53.917969 25.292969 48.515625 26.753906 44.398438 29.734375 Z M 44.398438 29.734375 "/>
<path style=" stroke:none;fill-rule:nonzero;fill:rgb(100%,100%,100%);fill-opacity:1;" d="M 139 16.199219 C 139.046875 16.214844 139.09375 16.226562 139.140625 16.242188 C 140.265625 16.582031 141.183594 17.234375 142 18.066406 C 142.054688 18.121094 142.109375 18.175781 142.164062 18.234375 C 142.726562 18.824219 143.335938 19.605469 143.425781 20.4375 C 143.386719 20.800781 143.285156 21.078125 143.007812 21.320312 C 142.632812 21.585938 142.320312 21.660156 141.867188 21.601562 C 141.273438 21.421875 140.953125 21.046875 140.617188 20.550781 C 139.875 19.484375 138.921875 18.816406 137.632812 18.566406 C 136.101562 18.359375 134.289062 18.449219 133.015625 19.40625 C 132.507812 19.839844 132.171875 20.335938 132.066406 21 C 132 21.886719 132.160156 22.589844 132.710938 23.296875 C 133.769531 24.453125 135.507812 24.667969 136.980469 24.871094 C 139.019531 25.15625 141.078125 25.679688 142.464844 27.332031 C 143.441406 28.632812 143.832031 30.203125 143.636719 31.816406 C 143.417969 33.328125 142.652344 34.589844 141.433594 35.515625 C 140.84375 35.9375 140.214844 36.222656 139.535156 36.464844 C 139.460938 36.492188 139.386719 36.519531 139.308594 36.546875 C 138.730469 36.738281 138.136719 36.84375 137.535156 36.933594 C 137.472656 36.941406 137.414062 36.953125 137.355469 36.960938 C 135.058594 37.246094 132.570312 36.675781 130.703125 35.296875 C 130.578125 35.199219 130.457031 35.101562 130.332031 35 C 130.285156 34.960938 130.234375 34.921875 130.183594 34.882812 C 129.515625 34.332031 128.699219 33.328125 128.578125 32.4375 C 128.570312 32.054688 128.605469 31.832031 128.867188 31.535156 C 129.261719 31.171875 129.609375 31.101562 130.132812 31.113281 C 130.625 31.164062 130.917969 31.40625 131.222656 31.78125 C 131.375 31.992188 131.507812 32.210938 131.636719 32.441406 C 132.195312 33.359375 133.4375 33.933594 134.433594 34.214844 C 136.082031 34.582031 137.886719 34.503906 139.367188 33.640625 C 140.101562 33.171875 140.585938 32.660156 140.800781 31.800781 C 140.949219 30.921875 140.832031 30.019531 140.332031 29.265625 C 139.261719 27.882812 137.796875 27.523438 136.140625 27.285156 C 134.28125 27.015625 132.632812 26.578125 131.132812 25.398438 C 131.0625 25.347656 131.0625 25.347656 130.992188 25.292969 C 130.023438 24.523438 129.417969 23.28125 129.265625 22.066406 C 129.179688 20.726562 129.34375 19.398438 130.265625 18.34375 C 130.414062 18.179688 130.574219 18.023438 130.734375 17.867188 C 130.78125 17.816406 130.828125 17.769531 130.875 17.71875 C 132.832031 15.824219 136.484375 15.449219 139 16.199219 Z M 139 16.199219 "/>
<path style=" stroke:none;fill-rule:nonzero;fill:rgb(100%,100%,100%);fill-opacity:1;" d="M 185 23.894531 C 186.410156 25.105469 187.261719 26.828125 187.464844 28.667969 C 187.503906 29.210938 187.496094 29.757812 187.496094 30.304688 C 187.496094 30.460938 187.496094 30.617188 187.496094 30.769531 C 187.496094 31.09375 187.496094 31.417969 187.496094 31.742188 C 187.496094 32.15625 187.496094 32.570312 187.5 32.984375 C 187.5 33.304688 187.5 33.625 187.5 33.945312 C 187.5 34.097656 187.5 34.25 187.5 34.402344 C 187.503906 34.617188 187.5 34.828125 187.5 35.042969 C 187.5 35.136719 187.5 35.136719 187.503906 35.230469 C 187.496094 35.671875 187.410156 36.039062 187.105469 36.367188 C 186.746094 36.6875 186.4375 36.761719 185.964844 36.75 C 185.542969 36.707031 185.222656 36.496094 184.933594 36.199219 C 184.664062 35.707031 184.6875 35.148438 184.667969 34.601562 C 184.621094 34.660156 184.574219 34.722656 184.523438 34.789062 C 183.527344 35.941406 182.027344 36.617188 180.535156 36.800781 C 180.25 36.820312 179.964844 36.824219 179.679688 36.820312 C 179.601562 36.820312 179.527344 36.820312 179.449219 36.820312 C 177.972656 36.796875 176.601562 36.289062 175.464844 35.332031 C 175.386719 35.269531 175.386719 35.269531 175.304688 35.199219 C 173.882812 33.988281 173.175781 32.226562 172.953125 30.402344 C 172.808594 28.492188 173.199219 26.5 174.402344 24.964844 C 174.492188 24.867188 174.578125 24.765625 174.667969 24.667969 C 174.710938 24.617188 174.75 24.566406 174.796875 24.511719 C 175.945312 23.152344 177.699219 22.386719 179.449219 22.210938 C 181.492188 22.050781 183.417969 22.582031 185 23.894531 Z M 177.132812 25.800781 C 177.09375 25.832031 177.054688 25.867188 177.015625 25.898438 C 176.167969 26.667969 175.679688 27.847656 175.585938 28.972656 C 175.519531 30.46875 175.835938 31.828125 176.84375 32.972656 C 177.707031 33.859375 178.828125 34.386719 180.066406 34.421875 C 181.210938 34.4375 182.292969 34.136719 183.167969 33.371094 C 183.269531 33.269531 183.367188 33.167969 183.464844 33.066406 C 183.535156 33 183.535156 33 183.605469 32.929688 C 184.507812 32.003906 184.863281 30.734375 184.867188 29.46875 C 184.84375 28.089844 184.378906 26.90625 183.429688 25.890625 C 182.671875 25.160156 181.660156 24.664062 180.601562 24.601562 C 180.546875 24.597656 180.496094 24.59375 180.441406 24.589844 C 179.203125 24.546875 178.054688 24.96875 177.132812 25.800781 Z M 177.132812 25.800781 "/>
<path style=" stroke:none;fill-rule:nonzero;fill:rgb(100%,100%,100%);fill-opacity:1;" d="M 95.207031 23.574219 C 95.628906 23.9375 95.953125 24.34375 96.265625 24.800781 C 96.304688 24.855469 96.34375 24.910156 96.382812 24.964844 C 97.132812 26.125 97.339844 27.535156 97.34375 28.890625 C 97.34375 28.964844 97.347656 29.039062 97.347656 29.113281 C 97.347656 29.355469 97.347656 29.59375 97.347656 29.835938 C 97.347656 29.917969 97.351562 30 97.351562 30.085938 C 97.351562 30.476562 97.351562 30.871094 97.351562 31.261719 C 97.351562 31.710938 97.355469 32.164062 97.359375 32.613281 C 97.359375 33.003906 97.359375 33.398438 97.359375 33.789062 C 97.363281 33.957031 97.363281 34.121094 97.363281 34.289062 C 97.363281 34.519531 97.363281 34.753906 97.363281 34.984375 C 97.367188 35.085938 97.367188 35.085938 97.367188 35.191406 C 97.363281 35.648438 97.292969 36.023438 96.972656 36.367188 C 96.605469 36.695312 96.261719 36.765625 95.785156 36.753906 C 95.40625 36.710938 95.125 36.554688 94.875 36.269531 C 94.585938 35.855469 94.582031 35.523438 94.582031 35.03125 C 94.582031 34.960938 94.582031 34.890625 94.582031 34.820312 C 94.582031 34.667969 94.578125 34.511719 94.578125 34.359375 C 94.578125 34.117188 94.578125 33.875 94.578125 33.632812 C 94.574219 32.941406 94.570312 32.25 94.570312 31.558594 C 94.570312 31.132812 94.566406 30.710938 94.5625 30.289062 C 94.5625 30.128906 94.5625 29.96875 94.5625 29.804688 C 94.5625 28.367188 94.539062 26.882812 93.460938 25.792969 C 92.523438 24.917969 91.414062 24.695312 90.164062 24.714844 C 89.167969 24.75 88.183594 25.109375 87.453125 25.800781 C 86.917969 26.402344 86.59375 27.132812 86.589844 27.945312 C 86.589844 28.015625 86.589844 28.082031 86.589844 28.152344 C 86.589844 28.261719 86.589844 28.261719 86.589844 28.378906 C 86.589844 28.457031 86.589844 28.535156 86.589844 28.617188 C 86.585938 28.832031 86.585938 29.046875 86.585938 29.261719 C 86.585938 29.488281 86.585938 29.710938 86.582031 29.9375 C 86.578125 30.707031 86.574219 31.472656 86.574219 32.242188 C 86.570312 32.664062 86.570312 33.089844 86.566406 33.515625 C 86.566406 33.738281 86.566406 33.964844 86.566406 34.1875 C 86.566406 34.4375 86.5625 34.6875 86.5625 34.9375 C 86.5625 35.011719 86.5625 35.085938 86.5625 35.164062 C 86.558594 35.613281 86.527344 35.972656 86.222656 36.328125 C 86.167969 36.375 86.167969 36.375 86.109375 36.421875 C 86.070312 36.453125 86.03125 36.484375 85.996094 36.515625 C 85.617188 36.765625 85.242188 36.78125 84.800781 36.734375 C 84.40625 36.617188 84.160156 36.402344 83.933594 36.066406 C 83.808594 35.761719 83.78125 35.480469 83.78125 35.152344 C 83.78125 35.105469 83.78125 35.054688 83.78125 35 C 83.78125 34.832031 83.78125 34.664062 83.78125 34.496094 C 83.78125 34.375 83.78125 34.257812 83.777344 34.136719 C 83.777344 33.808594 83.777344 33.480469 83.777344 33.152344 C 83.777344 32.949219 83.777344 32.742188 83.777344 32.539062 C 83.777344 31.824219 83.773438 31.109375 83.773438 30.394531 C 83.773438 29.730469 83.773438 29.066406 83.773438 28.398438 C 83.769531 27.828125 83.769531 27.257812 83.769531 26.683594 C 83.769531 26.34375 83.769531 26.003906 83.769531 25.660156 C 83.765625 25.339844 83.765625 25.019531 83.765625 24.699219 C 83.765625 24.582031 83.765625 24.464844 83.765625 24.347656 C 83.757812 23.148438 83.757812 23.148438 84.1875 22.664062 C 84.226562 22.632812 84.265625 22.601562 84.304688 22.570312 C 84.34375 22.539062 84.382812 22.507812 84.421875 22.476562 C 84.761719 22.246094 85.210938 22.300781 85.601562 22.332031 C 85.953125 22.425781 86.203125 22.617188 86.402344 22.921875 C 86.527344 23.203125 86.5625 23.5 86.601562 23.800781 C 86.660156 23.746094 86.71875 23.691406 86.777344 23.632812 C 89.136719 21.625 92.808594 21.6875 95.207031 23.574219 Z M 95.207031 23.574219 "/>
<path style=" stroke:none;fill-rule:nonzero;fill:rgb(100%,100%,100%);fill-opacity:1;" d="M 113.824219 22.433594 C 114.285156 22.871094 114.554688 23.402344 114.832031 23.964844 C 114.871094 24.046875 114.914062 24.132812 114.953125 24.214844 C 115.066406 24.4375 115.179688 24.664062 115.289062 24.886719 C 115.40625 25.121094 115.523438 25.355469 115.640625 25.59375 C 115.863281 26.039062 116.085938 26.484375 116.304688 26.929688 C 116.632812 27.585938 116.957031 28.238281 117.28125 28.890625 C 117.304688 28.9375 117.328125 28.984375 117.355469 29.035156 C 117.402344 29.132812 117.449219 29.226562 117.496094 29.324219 C 117.636719 29.601562 117.777344 29.882812 117.914062 30.160156 C 118 30.335938 118.085938 30.511719 118.175781 30.683594 C 118.234375 30.804688 118.292969 30.921875 118.351562 31.039062 C 118.578125 31.5 118.816406 31.953125 119.066406 32.398438 C 119.253906 32.214844 119.332031 31.988281 119.433594 31.75 C 119.457031 31.695312 119.480469 31.644531 119.503906 31.589844 C 119.554688 31.472656 119.605469 31.355469 119.652344 31.242188 C 119.789062 30.929688 119.925781 30.617188 120.0625 30.304688 C 120.089844 30.242188 120.117188 30.175781 120.144531 30.109375 C 120.429688 29.460938 120.722656 28.8125 121.015625 28.164062 C 121.359375 27.402344 121.699219 26.640625 122.035156 25.878906 C 122.089844 25.746094 122.148438 25.617188 122.207031 25.488281 C 122.371094 25.105469 122.535156 24.726562 122.699219 24.347656 C 122.753906 24.21875 122.808594 24.09375 122.863281 23.96875 C 122.929688 23.8125 122.996094 23.660156 123.0625 23.503906 C 123.273438 23.019531 123.488281 22.550781 124 22.332031 C 124.554688 22.253906 125.003906 22.347656 125.464844 22.667969 C 125.714844 22.921875 125.808594 23.140625 125.828125 23.492188 C 125.820312 23.953125 125.632812 24.328125 125.441406 24.742188 C 125.402344 24.828125 125.363281 24.914062 125.324219 25 C 125.242188 25.191406 125.15625 25.378906 125.070312 25.566406 C 124.929688 25.878906 124.785156 26.191406 124.644531 26.507812 C 124.46875 26.902344 124.292969 27.296875 124.113281 27.691406 C 123.808594 28.363281 123.507812 29.039062 123.207031 29.710938 C 123.1875 29.761719 123.164062 29.808594 123.144531 29.859375 C 123.054688 30.058594 122.964844 30.257812 122.878906 30.457031 C 122.621094 31.039062 122.359375 31.621094 122.101562 32.207031 C 121.960938 32.523438 121.816406 32.84375 121.675781 33.164062 C 121.617188 33.292969 121.5625 33.417969 121.503906 33.546875 C 121.476562 33.613281 121.449219 33.675781 121.417969 33.742188 C 121.164062 34.3125 121.164062 34.3125 121.082031 34.5 C 121.027344 34.625 120.972656 34.746094 120.914062 34.871094 C 120.777344 35.183594 120.640625 35.496094 120.5 35.808594 C 120.191406 36.5 119.882812 37.195312 119.574219 37.890625 C 119.433594 38.207031 119.292969 38.519531 119.15625 38.835938 C 119.101562 38.957031 119.046875 39.082031 118.992188 39.203125 C 118.964844 39.265625 118.9375 39.324219 118.910156 39.386719 C 118.746094 39.753906 118.582031 40.121094 118.421875 40.488281 C 118.320312 40.722656 118.214844 40.960938 118.109375 41.195312 C 118.0625 41.304688 118.015625 41.414062 117.964844 41.527344 C 117.902344 41.675781 117.832031 41.828125 117.765625 41.980469 C 117.75 42.023438 117.730469 42.066406 117.710938 42.113281 C 117.558594 42.445312 117.375 42.75 117.066406 42.957031 C 116.621094 43.101562 116.167969 43.007812 115.75 42.824219 C 115.445312 42.644531 115.246094 42.402344 115.132812 42.066406 C 115.105469 41.671875 115.164062 41.386719 115.328125 41.023438 C 115.347656 40.976562 115.367188 40.925781 115.390625 40.878906 C 115.457031 40.71875 115.527344 40.558594 115.601562 40.398438 C 115.648438 40.285156 115.699219 40.171875 115.75 40.058594 C 115.882812 39.753906 116.019531 39.449219 116.15625 39.140625 C 116.242188 38.945312 116.332031 38.75 116.417969 38.550781 C 116.679688 37.964844 116.941406 37.375 117.214844 36.792969 C 117.277344 36.660156 117.335938 36.527344 117.398438 36.398438 C 117.453125 36.277344 117.507812 36.160156 117.566406 36.042969 C 117.804688 35.539062 117.804688 35.539062 117.734375 35 C 117.617188 34.757812 117.492188 34.519531 117.363281 34.285156 C 117.246094 34.078125 117.132812 33.871094 117.019531 33.664062 C 116.996094 33.621094 116.972656 33.578125 116.949219 33.53125 C 116.710938 33.09375 116.480469 32.652344 116.253906 32.207031 C 115.90625 31.523438 115.546875 30.84375 115.175781 30.171875 C 114.875 29.621094 114.585938 29.058594 114.300781 28.5 C 113.980469 27.878906 113.664062 27.261719 113.324219 26.648438 C 113.003906 26.066406 112.695312 25.480469 112.386719 24.886719 C 112.363281 24.84375 112.34375 24.800781 112.320312 24.757812 C 112.257812 24.636719 112.195312 24.511719 112.128906 24.390625 C 112.09375 24.320312 112.058594 24.25 112.019531 24.175781 C 111.835938 23.804688 111.820312 23.5 111.933594 23.101562 C 112.074219 22.796875 112.332031 22.589844 112.601562 22.398438 C 112.996094 22.269531 113.441406 22.261719 113.824219 22.433594 Z M 113.824219 22.433594 "/>
<path style=" stroke:none;fill-rule:nonzero;fill:rgb(100%,100%,100%);fill-opacity:1;" d="M 109.246094 16.117188 C 109.703125 16.152344 110.023438 16.253906 110.332031 16.601562 C 110.625 16.957031 110.636719 17.289062 110.601562 17.734375 C 110.472656 18.085938 110.261719 18.367188 109.925781 18.539062 C 109.671875 18.621094 109.425781 18.636719 109.164062 18.660156 C 108.230469 18.75 107.425781 19.003906 106.8125 19.753906 C 106.277344 20.496094 106.128906 21.207031 106.058594 22.105469 C 106.046875 22.226562 106.039062 22.351562 106.027344 22.476562 C 106.023438 22.539062 106.015625 22.597656 106.011719 22.660156 C 106.007812 22.707031 106.003906 22.753906 106 22.800781 C 106.085938 22.800781 106.171875 22.796875 106.261719 22.796875 C 106.582031 22.792969 106.902344 22.789062 107.222656 22.789062 C 107.363281 22.789062 107.5 22.785156 107.640625 22.785156 C 107.839844 22.78125 108.039062 22.78125 108.238281 22.78125 C 108.300781 22.78125 108.363281 22.777344 108.425781 22.777344 C 108.863281 22.777344 109.257812 22.824219 109.605469 23.113281 C 109.632812 23.152344 109.664062 23.191406 109.695312 23.234375 C 109.726562 23.273438 109.757812 23.3125 109.792969 23.351562 C 109.988281 23.648438 109.96875 23.992188 109.933594 24.332031 C 109.816406 24.691406 109.589844 24.886719 109.265625 25.066406 C 109.078125 25.128906 108.960938 25.140625 108.761719 25.140625 C 108.699219 25.140625 108.640625 25.140625 108.578125 25.140625 C 108.511719 25.140625 108.445312 25.140625 108.375 25.140625 C 108.273438 25.140625 108.273438 25.140625 108.171875 25.140625 C 107.953125 25.140625 107.738281 25.136719 107.519531 25.136719 C 107.375 25.136719 107.226562 25.136719 107.082031 25.136719 C 106.71875 25.136719 106.359375 25.132812 106 25.132812 C 106 25.1875 106 25.242188 106 25.296875 C 106.003906 26.628906 106.007812 27.957031 106.011719 29.285156 C 106.011719 29.925781 106.011719 30.570312 106.015625 31.210938 C 106.015625 31.773438 106.019531 32.332031 106.019531 32.894531 C 106.019531 33.1875 106.019531 33.484375 106.019531 33.78125 C 106.023438 34.0625 106.023438 34.339844 106.023438 34.621094 C 106.023438 34.722656 106.023438 34.824219 106.023438 34.925781 C 106.023438 35.066406 106.023438 35.207031 106.023438 35.347656 C 106.023438 35.425781 106.023438 35.503906 106.023438 35.585938 C 105.976562 35.996094 105.777344 36.269531 105.464844 36.535156 C 105.078125 36.757812 104.710938 36.78125 104.265625 36.734375 C 103.835938 36.582031 103.535156 36.273438 103.332031 35.867188 C 103.269531 35.609375 103.257812 35.363281 103.257812 35.097656 C 103.257812 35.011719 103.257812 34.921875 103.257812 34.832031 C 103.257812 34.734375 103.257812 34.636719 103.257812 34.539062 C 103.257812 34.4375 103.257812 34.335938 103.257812 34.234375 C 103.257812 33.957031 103.257812 33.675781 103.261719 33.398438 C 103.261719 33.109375 103.261719 32.816406 103.261719 32.527344 C 103.261719 31.976562 103.261719 31.425781 103.261719 30.878906 C 103.261719 30.25 103.261719 29.625 103.261719 29 C 103.265625 27.710938 103.265625 26.421875 103.265625 25.132812 C 103.226562 25.132812 103.183594 25.136719 103.140625 25.136719 C 102.949219 25.144531 102.757812 25.148438 102.566406 25.148438 C 102.5 25.152344 102.4375 25.15625 102.367188 25.15625 C 101.941406 25.164062 101.621094 25.117188 101.265625 24.867188 C 100.953125 24.539062 100.914062 24.269531 100.917969 23.832031 C 100.949219 23.496094 101.082031 23.316406 101.320312 23.082031 C 101.742188 22.785156 102.125 22.78125 102.625 22.792969 C 102.6875 22.792969 102.75 22.792969 102.8125 22.792969 C 102.964844 22.796875 103.113281 22.796875 103.265625 22.800781 C 103.265625 22.757812 103.265625 22.71875 103.265625 22.675781 C 103.25 20.757812 103.78125 19.0625 105.132812 17.667969 C 106.257812 16.535156 107.71875 16.21875 109.246094 16.117188 Z M 109.246094 16.117188 "/>
<path style=" stroke:none;fill-rule:nonzero;fill:rgb(100%,100%,100%);fill-opacity:1;" d="M 151.667969 18 C 152.066406 18.410156 152.140625 18.832031 152.140625 19.394531 C 152.140625 19.507812 152.140625 19.507812 152.140625 19.625 C 152.140625 19.707031 152.140625 19.785156 152.140625 19.871094 C 152.140625 19.953125 152.140625 20.039062 152.140625 20.125 C 152.140625 20.347656 152.136719 20.566406 152.136719 20.789062 C 152.136719 21.015625 152.136719 21.242188 152.136719 21.46875 C 152.136719 21.914062 152.132812 22.355469 152.132812 22.800781 C 152.203125 22.796875 152.273438 22.796875 152.34375 22.796875 C 152.601562 22.789062 152.863281 22.789062 153.121094 22.785156 C 153.234375 22.785156 153.347656 22.78125 153.457031 22.78125 C 154.867188 22.75 154.867188 22.75 155.3125 23.175781 C 155.554688 23.453125 155.621094 23.773438 155.601562 24.132812 C 155.542969 24.433594 155.4375 24.65625 155.207031 24.859375 C 154.824219 25.121094 154.53125 25.152344 154.078125 25.144531 C 153.996094 25.144531 153.996094 25.144531 153.910156 25.144531 C 153.734375 25.144531 153.554688 25.144531 153.378906 25.140625 C 153.257812 25.140625 153.136719 25.140625 153.019531 25.140625 C 152.722656 25.136719 152.429688 25.136719 152.132812 25.132812 C 152.136719 26.039062 152.140625 26.949219 152.144531 27.855469 C 152.148438 28.277344 152.148438 28.699219 152.152344 29.121094 C 152.152344 29.527344 152.15625 29.933594 152.15625 30.34375 C 152.160156 30.496094 152.160156 30.652344 152.160156 30.808594 C 152.148438 32.296875 152.148438 32.296875 152.910156 33.527344 C 153.351562 33.917969 153.792969 33.996094 154.375 34.011719 C 154.429688 34.011719 154.484375 34.015625 154.539062 34.015625 C 154.648438 34.019531 154.761719 34.023438 154.871094 34.023438 C 155.316406 34.039062 155.570312 34.160156 155.882812 34.492188 C 156.128906 34.859375 156.191406 35.234375 156.132812 35.667969 C 156.011719 36.054688 155.808594 36.304688 155.464844 36.535156 C 155.042969 36.726562 154.691406 36.765625 154.230469 36.761719 C 154.164062 36.761719 154.101562 36.761719 154.035156 36.761719 C 152.679688 36.730469 151.589844 36.15625 150.660156 35.195312 C 149.421875 33.789062 149.378906 32.007812 149.386719 30.230469 C 149.386719 30.082031 149.386719 29.933594 149.386719 29.789062 C 149.386719 29.402344 149.390625 29.015625 149.390625 28.632812 C 149.390625 28.238281 149.394531 27.84375 149.394531 27.449219 C 149.394531 26.675781 149.398438 25.90625 149.398438 25.132812 C 149.335938 25.136719 149.335938 25.136719 149.269531 25.136719 C 149.066406 25.144531 148.867188 25.148438 148.667969 25.148438 C 148.597656 25.152344 148.53125 25.15625 148.457031 25.15625 C 148.023438 25.164062 147.691406 25.125 147.332031 24.867188 C 147.015625 24.523438 146.980469 24.304688 146.984375 23.851562 C 147.011719 23.5 147.140625 23.324219 147.386719 23.082031 C 147.820312 22.777344 148.214844 22.78125 148.726562 22.792969 C 148.824219 22.792969 148.824219 22.792969 148.921875 22.792969 C 149.082031 22.796875 149.242188 22.796875 149.398438 22.800781 C 149.398438 22.753906 149.398438 22.707031 149.398438 22.65625 C 149.394531 22.210938 149.390625 21.765625 149.390625 21.320312 C 149.386719 21.089844 149.386719 20.859375 149.386719 20.628906 C 149.382812 20.367188 149.382812 20.101562 149.378906 19.835938 C 149.378906 19.757812 149.378906 19.675781 149.378906 19.589844 C 149.378906 19.050781 149.417969 18.558594 149.746094 18.109375 C 150.300781 17.589844 151.042969 17.613281 151.667969 18 Z M 151.667969 18 "/>
<path style=" stroke:none;fill-rule:nonzero;fill:rgb(100%,100%,100%);fill-opacity:1;" d="M 195.410156 17.910156 C 195.707031 18.125 195.929688 18.371094 196 18.734375 C 196.003906 18.867188 196.007812 19.003906 196.007812 19.136719 C 196.007812 19.257812 196.007812 19.257812 196.007812 19.382812 C 196.007812 19.472656 196.007812 19.558594 196.007812 19.648438 C 196.007812 19.738281 196.007812 19.832031 196.007812 19.921875 C 196.007812 20.160156 196.003906 20.398438 196.003906 20.636719 C 196.003906 20.878906 196.003906 21.125 196.003906 21.367188 C 196.003906 21.84375 196 22.324219 196 22.800781 C 196.109375 22.796875 196.109375 22.796875 196.21875 22.796875 C 196.488281 22.792969 196.753906 22.789062 197.023438 22.789062 C 197.140625 22.789062 197.257812 22.785156 197.371094 22.785156 C 197.539062 22.78125 197.707031 22.78125 197.875 22.78125 C 197.953125 22.777344 197.953125 22.777344 198.03125 22.777344 C 198.4375 22.777344 198.816406 22.84375 199.136719 23.113281 C 199.167969 23.152344 199.199219 23.191406 199.230469 23.234375 C 199.261719 23.273438 199.292969 23.3125 199.324219 23.351562 C 199.519531 23.648438 199.503906 23.992188 199.464844 24.332031 C 199.347656 24.691406 199.125 24.886719 198.800781 25.066406 C 198.535156 25.15625 198.285156 25.140625 198.011719 25.140625 C 197.953125 25.140625 197.898438 25.140625 197.835938 25.140625 C 197.652344 25.140625 197.472656 25.136719 197.289062 25.136719 C 197.164062 25.136719 197.039062 25.136719 196.914062 25.136719 C 196.609375 25.136719 196.304688 25.132812 196 25.132812 C 196.003906 26 196.011719 26.867188 196.019531 27.734375 C 196.023438 28.136719 196.027344 28.539062 196.027344 28.941406 C 196.03125 29.328125 196.035156 29.714844 196.039062 30.105469 C 196.039062 30.253906 196.039062 30.402344 196.039062 30.550781 C 196.042969 30.757812 196.042969 30.964844 196.046875 31.171875 C 196.046875 31.234375 196.046875 31.292969 196.046875 31.355469 C 196.054688 32.113281 196.203125 32.878906 196.714844 33.464844 C 197.3125 34 197.972656 34.011719 198.738281 34.027344 C 199.121094 34.042969 199.429688 34.089844 199.710938 34.382812 C 199.734375 34.421875 199.761719 34.460938 199.789062 34.5 C 199.8125 34.539062 199.839844 34.578125 199.867188 34.617188 C 200.082031 34.996094 200.070312 35.535156 199.960938 35.945312 C 199.792969 36.289062 199.460938 36.492188 199.132812 36.667969 C 198.078125 36.988281 196.808594 36.710938 195.859375 36.226562 C 194.9375 35.726562 194.335938 35.011719 193.851562 34.097656 C 193.816406 34.039062 193.816406 34.039062 193.785156 33.980469 C 193.265625 32.945312 193.296875 31.765625 193.308594 30.640625 C 193.308594 30.480469 193.308594 30.320312 193.308594 30.160156 C 193.308594 29.746094 193.3125 29.328125 193.316406 28.914062 C 193.316406 28.488281 193.320312 28.058594 193.320312 27.632812 C 193.324219 26.800781 193.328125 25.96875 193.332031 25.132812 C 193.289062 25.132812 193.246094 25.136719 193.199219 25.136719 C 193 25.140625 192.796875 25.144531 192.597656 25.144531 C 192.492188 25.148438 192.492188 25.148438 192.386719 25.152344 C 191.921875 25.15625 191.582031 25.125 191.203125 24.832031 C 190.976562 24.574219 190.871094 24.367188 190.855469 24.023438 C 190.882812 23.667969 190.96875 23.371094 191.210938 23.109375 C 191.707031 22.824219 192.105469 22.773438 192.667969 22.789062 C 192.730469 22.789062 192.796875 22.789062 192.863281 22.789062 C 193.019531 22.792969 193.175781 22.796875 193.332031 22.800781 C 193.332031 22.75 193.332031 22.699219 193.332031 22.648438 C 193.328125 22.179688 193.320312 21.707031 193.320312 21.238281 C 193.316406 20.996094 193.316406 20.753906 193.3125 20.511719 C 193.308594 20.277344 193.308594 20.042969 193.308594 19.808594 C 193.308594 19.675781 193.304688 19.546875 193.304688 19.414062 C 193.304688 18.898438 193.324219 18.492188 193.695312 18.097656 C 194.1875 17.65625 194.832031 17.582031 195.410156 17.910156 Z M 195.410156 17.910156 "/>
<path style=" stroke:none;fill-rule:nonzero;fill:rgb(100%,100%,100%);fill-opacity:1;" d="M 77.066406 16.398438 C 77.339844 16.632812 77.511719 16.9375 77.550781 17.292969 C 77.550781 17.347656 77.550781 17.40625 77.550781 17.464844 C 77.550781 17.527344 77.550781 17.59375 77.550781 17.660156 C 77.550781 17.730469 77.550781 17.804688 77.550781 17.875 C 77.550781 17.953125 77.550781 18.027344 77.550781 18.105469 C 77.554688 18.359375 77.554688 18.617188 77.550781 18.871094 C 77.554688 19.050781 77.554688 19.234375 77.554688 19.417969 C 77.554688 19.863281 77.554688 20.304688 77.554688 20.75 C 77.554688 21.113281 77.554688 21.472656 77.554688 21.835938 C 77.558594 22.859375 77.558594 23.882812 77.558594 24.910156 C 77.558594 24.964844 77.558594 25.019531 77.558594 25.074219 C 77.558594 25.132812 77.558594 25.1875 77.558594 25.242188 C 77.558594 26.140625 77.558594 27.035156 77.5625 27.933594 C 77.5625 28.851562 77.5625 29.773438 77.5625 30.691406 C 77.5625 31.210938 77.5625 31.726562 77.566406 32.242188 C 77.566406 32.683594 77.566406 33.121094 77.566406 33.5625 C 77.566406 33.785156 77.566406 34.011719 77.566406 34.234375 C 77.566406 34.476562 77.566406 34.722656 77.566406 34.964844 C 77.566406 35.035156 77.566406 35.105469 77.570312 35.179688 C 77.5625 35.667969 77.484375 36.039062 77.136719 36.402344 C 76.683594 36.71875 76.683594 36.71875 76.398438 36.734375 C 76.328125 36.738281 76.253906 36.746094 76.179688 36.75 C 75.75 36.722656 75.371094 36.582031 75.066406 36.265625 C 74.78125 35.847656 74.761719 35.460938 74.765625 34.964844 C 74.765625 34.890625 74.765625 34.816406 74.765625 34.734375 C 74.765625 34.480469 74.765625 34.226562 74.765625 33.972656 C 74.765625 33.792969 74.765625 33.609375 74.765625 33.425781 C 74.761719 32.984375 74.761719 32.539062 74.765625 32.09375 C 74.765625 31.734375 74.765625 31.375 74.765625 31.011719 C 74.765625 30.960938 74.765625 30.910156 74.765625 30.855469 C 74.765625 30.753906 74.765625 30.648438 74.765625 30.542969 C 74.761719 29.566406 74.765625 28.585938 74.765625 27.609375 C 74.765625 26.769531 74.765625 25.929688 74.765625 25.089844 C 74.765625 24.117188 74.761719 23.140625 74.765625 22.164062 C 74.765625 22.0625 74.765625 21.957031 74.765625 21.855469 C 74.765625 21.777344 74.765625 21.777344 74.765625 21.699219 C 74.765625 21.339844 74.765625 20.976562 74.761719 20.617188 C 74.761719 20.179688 74.761719 19.738281 74.765625 19.300781 C 74.765625 19.078125 74.765625 18.851562 74.765625 18.628906 C 74.765625 18.386719 74.765625 18.144531 74.765625 17.898438 C 74.765625 17.828125 74.765625 17.757812 74.765625 17.6875 C 74.769531 17.269531 74.824219 16.949219 75.066406 16.601562 C 75.214844 16.460938 75.214844 16.460938 75.367188 16.371094 C 75.417969 16.339844 75.46875 16.308594 75.519531 16.273438 C 76.042969 16.007812 76.570312 16.125 77.066406 16.398438 Z M 77.066406 16.398438 "/>
<path style=" stroke:none;fill-rule:nonzero;fill:rgb(100%,100%,100%);fill-opacity:1;" d="M 170.265625 22.753906 C 170.597656 23.03125 170.707031 23.261719 170.761719 23.695312 C 170.714844 24.089844 170.582031 24.363281 170.289062 24.628906 C 169.777344 24.871094 169.265625 24.789062 168.722656 24.703125 C 167.136719 24.480469 165.664062 24.617188 164.316406 25.550781 C 163.613281 26.253906 163.394531 27.003906 163.390625 27.976562 C 163.390625 28.089844 163.390625 28.089844 163.390625 28.207031 C 163.390625 28.289062 163.390625 28.371094 163.390625 28.453125 C 163.390625 28.628906 163.390625 28.804688 163.390625 28.980469 C 163.386719 29.261719 163.386719 29.539062 163.386719 29.816406 C 163.386719 29.914062 163.386719 30.007812 163.382812 30.105469 C 163.382812 30.152344 163.382812 30.199219 163.382812 30.25 C 163.382812 30.898438 163.378906 31.542969 163.378906 32.191406 C 163.378906 32.628906 163.375 33.070312 163.375 33.507812 C 163.371094 33.738281 163.371094 33.96875 163.371094 34.199219 C 163.371094 34.457031 163.371094 34.714844 163.367188 34.976562 C 163.371094 35.089844 163.371094 35.089844 163.371094 35.203125 C 163.363281 35.726562 163.289062 36.101562 162.914062 36.492188 C 162.496094 36.742188 162.050781 36.796875 161.578125 36.703125 C 161.199219 36.597656 161.015625 36.464844 160.800781 36.132812 C 160.671875 35.824219 160.648438 35.542969 160.648438 35.214844 C 160.648438 35.164062 160.648438 35.113281 160.648438 35.0625 C 160.648438 34.890625 160.648438 34.722656 160.648438 34.550781 C 160.648438 34.429688 160.648438 34.308594 160.648438 34.183594 C 160.644531 33.851562 160.644531 33.523438 160.648438 33.191406 C 160.648438 32.914062 160.644531 32.636719 160.644531 32.359375 C 160.644531 31.707031 160.644531 31.054688 160.644531 30.402344 C 160.644531 29.730469 160.644531 29.054688 160.644531 28.382812 C 160.644531 27.804688 160.640625 27.226562 160.640625 26.648438 C 160.640625 26.304688 160.640625 25.957031 160.640625 25.613281 C 160.640625 25.289062 160.640625 24.964844 160.640625 24.636719 C 160.640625 24.519531 160.640625 24.402344 160.640625 24.28125 C 160.640625 24.117188 160.640625 23.957031 160.640625 23.792969 C 160.640625 23.746094 160.640625 23.699219 160.640625 23.652344 C 160.644531 23.230469 160.753906 22.933594 161.023438 22.613281 C 161.34375 22.34375 161.617188 22.3125 162.027344 22.3125 C 162.113281 22.3125 162.199219 22.308594 162.289062 22.308594 C 162.628906 22.34375 162.847656 22.441406 163.082031 22.691406 C 163.285156 22.996094 163.351562 23.257812 163.375 23.621094 C 163.378906 23.691406 163.386719 23.761719 163.390625 23.835938 C 163.394531 23.890625 163.398438 23.945312 163.398438 24 C 163.453125 23.925781 163.453125 23.925781 163.511719 23.851562 C 164.953125 22.136719 168.378906 21.394531 170.265625 22.753906 Z M 170.265625 22.753906 "/>
</g>
</svg>
